<?xml version="1.0" encoding="utf-8"?>
<!-- Generator: Adobe Illustrator 26.0.0, SVG Export Plug-In . SVG Version: 6.00 Build 0)  -->
<svg version="1.1" xmlns="http://www.w3.org/2000/svg" xmlns:xlink="http://www.w3.org/1999/xlink" x="0px" y="0px"
	 viewBox="0 0 5085 3119" style="enable-background:new 0 0 5085 3119;" xml:space="preserve">
<style type="text/css">
	.st0{fill:none;}
	.st1{fill:none;stroke:#1D1D1B;stroke-miterlimit:10;}
	.st2{fill:none;stroke:#000000;stroke-miterlimit:10;}
</style>
<g id="Imagen">
	
		<image style="overflow:visible;" width="7000" height="3937" id="Piso_1" xlink:href="C:\Users\1\Desktop\BootCamp-DWFS\Practica SVG\assets\Img\planta primer piso.png"  transform="matrix(1.0004 0 0 0.9917 -1131.8212 -117.4032)">
	</image>
</g>
<g id="Textos">
	<g>
		<rect x="2470.2" y="2285.5" class="st0" width="1659.5" height="119.5"/>
		<path d="M2579,2398.5h-24.3v-27.9h-38.4v27.9h-23.7v-57c0-13.5,3.7-24,11.2-31.7c7.4-7.6,18.1-11.4,31.9-11.4
			c13.9,0,24.6,3.8,32.1,11.4c7.5,7.6,11.2,18.2,11.2,31.7V2398.5z M2554.7,2349.6v-8.1c0-13.7-6.4-20.5-19.2-20.5
			c-12.8,0-19.2,6.9-19.2,20.5v8.1H2554.7z"/>
		<path d="M2817.5,2398.5h-70.7v-98.1h24.3v75.6h46.4V2398.5z"/>
		<path d="M3003.5,2336.4v62.1h-24.3v-62.1c0-12.6,3.2-22.1,9.7-28.4c6.5-6.3,14.9-9.5,25.4-9.5c12.2,0,21.2,4.5,27,13.3h0.3
			c5.8-8.9,14.8-13.3,27-13.3c10.5,0,19,3.2,25.4,9.5c6.5,6.4,9.7,15.8,9.7,28.4v62.1h-24.3v-62.1c0-10.3-4.3-15.5-12.9-15.5
			c-8.6,0-12.9,5.2-12.9,15.5v62.1h-24.3v-62.1c0-10.3-4.3-15.5-12.9-15.5C3007.8,2320.9,3003.5,2326.1,3003.5,2336.4z"/>
		<path d="M3355.6,2398.5h-24.3v-27.9h-38.4v27.9h-23.7v-57c0-13.5,3.7-24,11.2-31.7c7.4-7.6,18.1-11.4,31.9-11.4
			c13.9,0,24.6,3.8,32.1,11.4c7.5,7.6,11.2,18.2,11.2,31.7V2398.5z M3331.3,2349.6v-8.1c0-13.7-6.4-20.5-19.2-20.5
			c-12.8,0-19.2,6.9-19.2,20.5v8.1H3331.3z"/>
		<path d="M3621.7,2337.6H3596c-2-5.1-5.2-9.1-9.7-12.1c-4.5-3-9.7-4.5-15.7-4.5c-8.2,0-14.8,2.7-20,8c-5.1,5.4-7.6,12.2-7.6,20.5
			c0,8.3,2.5,15.1,7.6,20.5c5.1,5.4,11.8,8,20,8c6,0,11.2-1.5,15.7-4.5c4.4-3,7.7-7,9.7-12.2h25.6c-2.5,11.7-8.4,21.2-17.6,28.4
			c-9.3,7.2-20.4,10.8-33.4,10.8c-15.2,0-27.7-4.8-37.5-14.4c-9.8-9.6-14.7-21.8-14.7-36.6c0-14.8,4.9-27,14.7-36.6
			c9.8-9.6,22.3-14.4,37.5-14.4c13,0,24.1,3.6,33.4,10.8C3613.3,2316.4,3619.2,2325.9,3621.7,2337.6z"/>
		<path d="M3858.5,2398.5h-72.5v-98.1h72.5v22.5h-48.2v16h39.5v19.5h-39.5v17.5h48.2V2398.5z M3827.3,2292.3h-19l16.5-24.3h23.2
			L3827.3,2292.3z"/>
		<path d="M4107.2,2398.5h-24.3v-58.8c0-12.5-5.9-18.8-17.7-18.8c-11.8,0-17.7,6.3-17.7,18.8v58.8h-24.3v-58.8
			c0-12.8,3.6-22.9,11-30.2c7.3-7.3,17.6-11,31-11c13.4,0,23.7,3.7,31,11c7.3,7.4,11,17.4,11,30.2V2398.5z"/>
	</g>
	<g>
		<rect x="1960.7" y="1073.8" class="st0" width="991.5" height="210.1"/>
		<path d="M1996.6,1161.7h-11.3v-45.8h18c6,0,10.5,1.5,13.5,4.4c3,2.9,4.5,6.8,4.5,11.7c0,4.9-1.5,8.8-4.5,11.8
			c-3,2.9-7.5,4.4-13.5,4.4h-6.6V1161.7z M1996.6,1137.7h6.9c4.2,0,6.3-1.9,6.3-5.7c0-3.7-2.1-5.6-6.3-5.6h-6.9V1137.7z"/>
		<path d="M2130.3,1161.7h-33v-45.8h11.3v35.3h21.6V1161.7z"/>
		<path d="M2246,1161.7h-11.3v-13h-17.9v13h-11.1v-26.6c0-6.3,1.7-11.2,5.2-14.8c3.5-3.5,8.4-5.3,14.9-5.3c6.5,0,11.5,1.8,15,5.3
			c3.5,3.5,5.2,8.5,5.2,14.8V1161.7z M2234.7,1138.9v-3.8c0-6.4-3-9.6-9-9.6c-6,0-9,3.2-9,9.6v3.8H2234.7z"/>
		<path d="M2358.2,1126.1l-21.1,25v0.2h21.8v10.5h-36.2v-10.2l21.1-25v-0.1h-20v-10.5h34.5V1126.1z"/>
		<path d="M2475.6,1121.8c4.6,4.5,6.9,10.2,6.9,17.1s-2.3,12.6-6.9,17.1c-4.6,4.5-10.4,6.7-17.5,6.7c-7.1,0-12.9-2.2-17.5-6.7
			c-4.6-4.5-6.9-10.2-6.9-17.1s2.3-12.6,6.9-17.1c4.6-4.5,10.4-6.7,17.5-6.7C2465.2,1115,2471.1,1117.3,2475.6,1121.8z
			 M2448.8,1148.4c2.4,2.5,5.5,3.7,9.3,3.7c3.8,0,6.9-1.2,9.3-3.7c2.4-2.5,3.6-5.7,3.6-9.6c0-3.9-1.2-7.1-3.6-9.6
			c-2.4-2.5-5.5-3.7-9.3-3.7c-3.8,0-6.9,1.2-9.3,3.7c-2.4,2.5-3.6,5.7-3.6,9.6C2445.3,1142.7,2446.4,1145.9,2448.8,1148.4z"/>
		<path d="M2592.5,1161.7h-33v-45.8h11.3v35.3h21.6V1161.7z"/>
		<path d="M2702.8,1161.7H2669v-45.8h33.8v10.5h-22.5v7.5h18.4v9.1h-18.4v8.2h22.5V1161.7z"/>
		<path d="M2801.8,1161.7h-11.3v-35.3H2778v-10.5h36.3v10.5h-12.5V1161.7z"/>
		<path d="M2928.7,1161.7h-11.3v-13h-17.9v13h-11.1v-26.6c0-6.3,1.7-11.2,5.2-14.8c3.5-3.5,8.4-5.3,14.9-5.3c6.5,0,11.5,1.8,15,5.3
			c3.5,3.5,5.2,8.5,5.2,14.8V1161.7z M2917.3,1138.9v-3.8c0-6.4-3-9.6-9-9.6c-6,0-9,3.2-9,9.6v3.8H2917.3z"/>
		<path d="M2141.9,1217.3h-12c-0.9-2.4-2.4-4.3-4.5-5.7c-2.1-1.4-4.5-2.1-7.3-2.1c-3.8,0-6.9,1.2-9.3,3.7c-2.4,2.5-3.6,5.7-3.6,9.6
			c0,3.9,1.2,7.1,3.6,9.6c2.4,2.5,5.5,3.7,9.3,3.7c2.8,0,5.2-0.7,7.3-2.1c2.1-1.4,3.6-3.3,4.5-5.7h12c-1.2,5.5-3.9,9.9-8.2,13.2
			c-4.3,3.4-9.5,5-15.6,5c-7.1,0-12.9-2.2-17.5-6.7c-4.6-4.5-6.9-10.2-6.9-17.1s2.3-12.6,6.9-17.1c4.6-4.5,10.4-6.7,17.5-6.7
			c6.1,0,11.3,1.7,15.6,5C2138,1207.4,2140.7,1211.8,2141.9,1217.3z"/>
		<path d="M2252.4,1245.7h-33.8v-45.8h33.8v10.5H2230v7.5h18.4v9.1H2230v8.2h22.5V1245.7z"/>
		<path d="M2368.5,1245.7h-11.3v-27.4c0-5.8-2.8-8.8-8.3-8.8c-5.5,0-8.3,2.9-8.3,8.8v27.4h-11.3v-27.4c0-6,1.7-10.7,5.1-14.1
			c3.4-3.4,8.2-5.1,14.5-5.1c6.3,0,11.1,1.7,14.5,5.1c3.4,3.4,5.1,8.1,5.1,14.1V1245.7z"/>
		<path d="M2466.4,1245.7h-11.3v-35.3h-12.5v-10.5h36.3v10.5h-12.5V1245.7z"/>
		<path d="M2593.3,1245.7h-13.4l-8.1-14.3h-4.8v14.3h-11.3v-45.8h18.5c5.8,0,10.2,1.4,13.1,4.3c2.9,2.8,4.4,6.6,4.4,11.4
			c0,3.3-0.7,6.2-2.1,8.6c-1.4,2.5-3.6,4.3-6.4,5.5v0.1L2593.3,1245.7z M2566.9,1220.9h7.3c3.9,0,5.9-1.8,5.9-5.2
			c0-3.5-2-5.2-5.9-5.2h-7.3V1220.9z"/>
		<path d="M2708.3,1245.7H2697v-13h-17.9v13H2668v-26.6c0-6.3,1.7-11.2,5.2-14.8c3.5-3.5,8.4-5.3,14.9-5.3c6.5,0,11.5,1.8,15,5.3
			c3.5,3.5,5.2,8.5,5.2,14.8V1245.7z M2697,1222.9v-3.8c0-6.4-3-9.6-9-9.6c-6,0-9,3.2-9,9.6v3.8H2697z"/>
		<path d="M2819.6,1245.7h-33v-45.8h11.3v35.3h21.6V1245.7z"/>
	</g>
	<g>
		<rect x="2875.6" y="986.3" class="st0" width="475" height="136.9"/>
		<path d="M2965.1,1046.2h-5.7v-22.9h9c3,0,5.2,0.7,6.7,2.2s2.3,3.4,2.3,5.9s-0.8,4.4-2.3,5.9s-3.8,2.2-6.7,2.2h-3.3V1046.2z
			 M2965.1,1034.2h3.4c2.1,0,3.1-0.9,3.1-2.8c0-1.9-1-2.8-3.1-2.8h-3.4V1034.2z"/>
		<path d="M3035.1,1046.2h-5.7v-6.5h-9v6.5h-5.5v-13.3c0-3.2,0.9-5.6,2.6-7.4s4.2-2.7,7.4-2.7c3.2,0,5.7,0.9,7.5,2.7
			s2.6,4.2,2.6,7.4V1046.2z M3029.4,1034.8v-1.9c0-3.2-1.5-4.8-4.5-4.8c-3,0-4.5,1.6-4.5,4.8v1.9H3029.4z"/>
		<path d="M3093.1,1046.2h-6.7l-4.1-7.2h-2.4v7.2h-5.7v-22.9h9.3c2.9,0,5.1,0.7,6.6,2.1c1.5,1.4,2.2,3.3,2.2,5.7
			c0,1.7-0.4,3.1-1.1,4.3c-0.7,1.2-1.8,2.1-3.2,2.7v0.1L3093.1,1046.2z M3079.9,1033.8h3.7c2,0,2.9-0.9,2.9-2.6c0-1.7-1-2.6-2.9-2.6
			h-3.7V1033.8z"/>
		<path d="M3154.1,1034.7c0,3.6-1.2,6.5-3.7,8.8l4.4,6.3h-6.5l-2.4-3.7c-1.3,0.4-2.6,0.6-4,0.6c-3.5,0-6.5-1.1-8.8-3.4
			c-2.3-2.2-3.4-5.1-3.4-8.5c0-3.5,1.1-6.3,3.4-8.5c2.3-2.2,5.2-3.4,8.8-3.4c3.5,0,6.5,1.1,8.8,3.4
			C3153,1028.4,3154.1,1031.3,3154.1,1034.7z M3141.9,1041.4c0.3,0,0.6,0,0.8,0v-0.1l-3.1-4.4h6.5l1.1,1.8h0.1
			c0.7-1.1,1.1-2.4,1.1-3.9c0-1.9-0.6-3.5-1.8-4.8c-1.2-1.2-2.7-1.9-4.7-1.9c-1.9,0-3.5,0.6-4.7,1.9c-1.2,1.2-1.8,2.8-1.8,4.8
			c0,1.9,0.6,3.5,1.8,4.8C3138.5,1040.8,3140,1041.4,3141.9,1041.4z"/>
		<path d="M3206.1,1037v-13.7h5.5v13.7c0,3-0.8,5.3-2.5,7.1s-4.1,2.6-7.1,2.6c-3.1,0-5.5-0.9-7.2-2.6s-2.6-4.1-2.6-7.1v-13.7h5.7
			v13.7c0,2.9,1.4,4.4,4.1,4.4C3204.7,1041.4,3206.1,1039.9,3206.1,1037z"/>
		<path d="M3267.6,1046.2h-16.9v-22.9h16.9v5.2h-11.2v3.7h9.2v4.5h-9.2v4.1h11.2V1046.2z"/>
		<path d="M2923.8,1088.2h-5.7v-22.9h5.7V1088.2z"/>
		<path d="M2982.6,1088.2h-5.7v-13.7c0-2.9-1.4-4.4-4.1-4.4c-2.8,0-4.1,1.5-4.1,4.4v13.7h-5.7v-13.7c0-3,0.9-5.3,2.6-7.1
			s4.1-2.6,7.2-2.6c3.1,0,5.5,0.9,7.2,2.6c1.7,1.7,2.6,4.1,2.6,7.1V1088.2z"/>
		<path d="M3027.4,1088.2h-5.7v-22.9h16.6v5.2h-11v3.6h8.9v4.9h-8.9V1088.2z"/>
		<path d="M3096,1088.2h-5.7v-6.5h-9v6.5h-5.5v-13.3c0-3.2,0.9-5.6,2.6-7.4s4.2-2.7,7.4-2.7c3.2,0,5.7,0.9,7.5,2.7s2.6,4.2,2.6,7.4
			V1088.2z M3090.4,1076.8v-1.9c0-3.2-1.5-4.8-4.5-4.8c-3,0-4.5,1.6-4.5,4.8v1.9H3090.4z"/>
		<path d="M3154.3,1088.2h-5.7v-13.7c0-2.9-1.4-4.4-4.1-4.4c-2.8,0-4.1,1.5-4.1,4.4v13.7h-5.7v-13.7c0-3,0.9-5.3,2.6-7.1
			s4.1-2.6,7.2-2.6c3.1,0,5.5,0.9,7.2,2.6c1.7,1.7,2.6,4.1,2.6,7.1V1088.2z"/>
		<path d="M3203.2,1088.2h-5.7v-17.6h-6.2v-5.2h18.2v5.2h-6.3V1088.2z"/>
		<path d="M3253.4,1088.2h-5.7v-22.9h5.7V1088.2z"/>
		<path d="M3309.6,1088.2h-16.5v-22.9h5.7v17.6h10.8V1088.2z"/>
	</g>
	<g>
		<rect x="2101.6" y="111.5" class="st0" width="709.7" height="243.5"/>
		<path d="M2175.1,218.6h-29v-39.2h29v9h-19.3v6.4h15.8v7.8h-15.8v7h19.3V218.6z"/>
		<path d="M2274.6,218.6h-9.7v-23.5c0-5-2.4-7.5-7.1-7.5c-4.7,0-7.1,2.5-7.1,7.5v23.5h-9.7v-23.5c0-5.1,1.5-9.2,4.4-12.1
			c2.9-2.9,7.1-4.4,12.4-4.4c5.4,0,9.5,1.5,12.4,4.4c2.9,2.9,4.4,7,4.4,12.1V218.6z"/>
		<path d="M2358.6,218.6h-9.7v-30.2h-10.7v-9h31.1v9h-10.7V218.6z"/>
		<path d="M2467.3,218.6h-11.5l-7-12.3h-4.1v12.3h-9.7v-39.2h15.9c5,0,8.8,1.2,11.2,3.7c2.5,2.4,3.8,5.7,3.8,9.8
			c0,2.8-0.6,5.3-1.8,7.4c-1.2,2.1-3.1,3.7-5.5,4.7v0.1L2467.3,218.6z M2444.7,197.3h6.3c3.4,0,5-1.5,5-4.5c0-3-1.7-4.4-5-4.4h-6.3
			V197.3z"/>
		<path d="M2565.9,218.6h-9.7v-11.2h-15.4v11.2h-9.5v-22.8c0-5.4,1.5-9.6,4.5-12.7c3-3,7.2-4.6,12.8-4.6c5.6,0,9.8,1.5,12.8,4.6
			c3,3,4.5,7.3,4.5,12.7V218.6z M2556.2,199v-3.2c0-5.5-2.6-8.2-7.7-8.2s-7.7,2.7-7.7,8.2v3.2H2556.2z"/>
		<path d="M2646.9,218.6h-13.9v-39.2h13.9c6.8,0,11.9,1.8,15.6,5.3c3.6,3.5,5.4,8.3,5.4,14.3c0,6-1.8,10.8-5.4,14.3
			C2658.9,216.8,2653.7,218.6,2646.9,218.6z M2642.8,209.6h4.1c7.4,0,11.2-3.5,11.2-10.6s-3.7-10.6-11.2-10.6h-4.1V209.6z"/>
		<path d="M2767.6,218.6h-9.7v-11.2h-15.4v11.2h-9.5v-22.8c0-5.4,1.5-9.6,4.5-12.7c3-3,7.2-4.6,12.8-4.6c5.6,0,9.8,1.5,12.8,4.6
			c3,3,4.5,7.3,4.5,12.7V218.6z M2757.9,199v-3.2c0-5.5-2.6-8.2-7.7-8.2s-7.7,2.7-7.7,8.2v3.2H2757.9z"/>
		<path d="M2468.8,290.6h-24.9v-7.8l12.4-12.7c2.6-2.6,3.8-4.8,3.8-6.7c0-3-1.2-4.4-3.6-4.4c-2.4,0-3.6,1.6-3.6,4.8v0.5h-9v-0.5
			c0-4,1.1-7.2,3.4-9.6c2.3-2.4,5.3-3.6,9.3-3.6c3.8,0,6.9,1.2,9.2,3.6c2.3,2.4,3.5,5.5,3.5,9.3c0,2.3-0.5,4.3-1.5,6.1
			s-2.6,3.7-4.7,5.8l-7.2,7l0,0.2h12.9V290.6z"/>
	</g>
	<g>
		<rect x="1334.7" y="2569.9" class="st0" width="709.7" height="243.5"/>
		<path d="M1408.3,2676.9h-29v-39.2h29v9H1389v6.4h15.8v7.8H1389v7h19.3V2676.9z"/>
		<path d="M1507.8,2676.9h-9.7v-23.5c0-5-2.4-7.5-7.1-7.5c-4.7,0-7.1,2.5-7.1,7.5v23.5h-9.7v-23.5c0-5.1,1.5-9.2,4.4-12.1
			c2.9-2.9,7.1-4.4,12.4-4.4c5.4,0,9.5,1.5,12.4,4.4c2.9,2.9,4.4,7,4.4,12.1V2676.9z"/>
		<path d="M1591.7,2676.9h-9.7v-30.2h-10.7v-9h31.1v9h-10.7V2676.9z"/>
		<path d="M1700.4,2676.9h-11.5l-7-12.3h-4.1v12.3h-9.7v-39.2h15.9c5,0,8.8,1.2,11.2,3.7c2.5,2.4,3.8,5.7,3.8,9.8
			c0,2.8-0.6,5.3-1.8,7.4c-1.2,2.1-3.1,3.7-5.5,4.7v0.1L1700.4,2676.9z M1677.8,2655.6h6.3c3.4,0,5-1.5,5-4.5c0-3-1.7-4.4-5-4.4
			h-6.3V2655.6z"/>
		<path d="M1799.1,2676.9h-9.7v-11.2H1774v11.2h-9.5v-22.8c0-5.4,1.5-9.6,4.5-12.7c3-3,7.2-4.6,12.8-4.6c5.6,0,9.8,1.5,12.8,4.6
			c3,3,4.5,7.3,4.5,12.7V2676.9z M1789.3,2657.3v-3.2c0-5.5-2.6-8.2-7.7-8.2s-7.7,2.7-7.7,8.2v3.2H1789.3z"/>
		<path d="M1880.1,2676.9h-13.9v-39.2h13.9c6.8,0,11.9,1.8,15.6,5.3c3.6,3.5,5.4,8.3,5.4,14.3c0,6-1.8,10.8-5.4,14.3
			C1892,2675.1,1886.8,2676.9,1880.1,2676.9z M1875.9,2667.9h4.1c7.4,0,11.2-3.5,11.2-10.6s-3.7-10.6-11.2-10.6h-4.1V2667.9z"/>
		<path d="M2000.7,2676.9h-9.7v-11.2h-15.4v11.2h-9.5v-22.8c0-5.4,1.5-9.6,4.5-12.7c3-3,7.2-4.6,12.8-4.6c5.6,0,9.8,1.5,12.8,4.6
			c3,3,4.5,7.3,4.5,12.7V2676.9z M1991,2657.3v-3.2c0-5.5-2.6-8.2-7.7-8.2s-7.7,2.7-7.7,8.2v3.2H1991z"/>
		<path d="M1700.8,2748.9h-9v-7.7h-16.2v-7.8l16.2-23.8h9v23.5h3.4v8.1h-3.4V2748.9z M1692.1,2722.1l-0.2,0l-7,10.9v0.2h7.2V2722.1z
			"/>
	</g>
	<g>
		<rect x="373.9" y="1233" class="st0" width="709.7" height="243.5"/>
		<path d="M447.5,1340.1h-29v-39.2h29v9h-19.3v6.4H444v7.8h-15.8v7h19.3V1340.1z"/>
		<path d="M546.9,1340.1h-9.7v-23.5c0-5-2.4-7.5-7.1-7.5c-4.7,0-7.1,2.5-7.1,7.5v23.5h-9.7v-23.5c0-5.1,1.5-9.2,4.4-12.1
			c2.9-2.9,7.1-4.4,12.4-4.4c5.4,0,9.5,1.5,12.4,4.4c2.9,2.9,4.4,7,4.4,12.1V1340.1z"/>
		<path d="M630.9,1340.1h-9.7v-30.2h-10.7v-9h31.1v9h-10.7V1340.1z"/>
		<path d="M739.6,1340.1h-11.5l-7-12.3H717v12.3h-9.7v-39.2h15.9c5,0,8.8,1.2,11.2,3.7c2.5,2.4,3.8,5.7,3.8,9.8
			c0,2.8-0.6,5.3-1.8,7.4c-1.2,2.1-3.1,3.7-5.5,4.7v0.1L739.6,1340.1z M717,1318.8h6.3c3.4,0,5-1.5,5-4.5c0-3-1.7-4.4-5-4.4H717
			V1318.8z"/>
		<path d="M838.2,1340.1h-9.7v-11.2h-15.4v11.2h-9.5v-22.8c0-5.4,1.5-9.6,4.5-12.7c3-3,7.2-4.6,12.8-4.6c5.6,0,9.8,1.5,12.8,4.6
			c3,3,4.5,7.3,4.5,12.7V1340.1z M828.5,1320.5v-3.2c0-5.5-2.6-8.2-7.7-8.2s-7.7,2.7-7.7,8.2v3.2H828.5z"/>
		<path d="M919.2,1340.1h-13.9v-39.2h13.9c6.8,0,11.9,1.8,15.6,5.3c3.6,3.5,5.4,8.3,5.4,14.3c0,6-1.8,10.8-5.4,14.3
			C931.2,1338.3,926,1340.1,919.2,1340.1z M915.1,1331.1h4.1c7.4,0,11.2-3.5,11.2-10.6s-3.7-10.6-11.2-10.6h-4.1V1331.1z"/>
		<path d="M1039.9,1340.1h-9.7v-11.2h-15.4v11.2h-9.5v-22.8c0-5.4,1.5-9.6,4.5-12.7c3-3,7.2-4.6,12.8-4.6c5.6,0,9.8,1.5,12.8,4.6
			c3,3,4.5,7.3,4.5,12.7V1340.1z M1030.2,1320.5v-3.2c0-5.5-2.6-8.2-7.7-8.2s-7.7,2.7-7.7,8.2v3.2H1030.2z"/>
		<path d="M727.4,1395.3h-4.3v-7.8h4.3c3,0,4.5-1.2,4.5-3.6c0-1-0.3-1.9-0.9-2.5c-0.6-0.6-1.5-1-2.5-1c-2.2,0-3.4,1.2-3.5,3.5h-8.8
			c0-3.8,1.2-6.8,3.4-8.8s5.2-3.1,9-3.1c3.8,0,6.8,1,9,3s3.4,4.7,3.4,8c0,3.9-1.5,6.7-4.5,8.2v0.1c3.8,1.6,5.8,4.8,5.8,9.4
			c0,3.7-1.3,6.6-3.8,8.8s-5.8,3.3-9.9,3.3c-4.1,0-7.4-1.1-9.9-3.3s-3.8-5.3-3.8-9.3h8.8c0,1.3,0.4,2.4,1.3,3.1s2,1.1,3.5,1.1
			c1.5,0,2.6-0.4,3.5-1.2s1.3-1.8,1.3-3.2C733.1,1396.9,731.2,1395.3,727.4,1395.3z"/>
	</g>
	<g>
		<rect x="4027.4" y="1233" class="st0" width="709.7" height="243.5"/>
		<path d="M4101,1340.1h-29v-39.2h29v9h-19.3v6.4h15.8v7.8h-15.8v7h19.3V1340.1z"/>
		<path d="M4200.5,1340.1h-9.7v-23.5c0-5-2.4-7.5-7.1-7.5c-4.7,0-7.1,2.5-7.1,7.5v23.5h-9.7v-23.5c0-5.1,1.5-9.2,4.4-12.1
			c2.9-2.9,7.1-4.4,12.4-4.4c5.4,0,9.5,1.5,12.4,4.4c2.9,2.9,4.4,7,4.4,12.1V1340.1z"/>
		<path d="M4284.4,1340.1h-9.7v-30.2H4264v-9h31.1v9h-10.7V1340.1z"/>
		<path d="M4393.1,1340.1h-11.5l-7-12.3h-4.1v12.3h-9.7v-39.2h15.9c5,0,8.8,1.2,11.2,3.7c2.5,2.4,3.8,5.7,3.8,9.8
			c0,2.8-0.6,5.3-1.8,7.4c-1.2,2.1-3.1,3.7-5.5,4.7v0.1L4393.1,1340.1z M4370.5,1318.8h6.3c3.4,0,5-1.5,5-4.5c0-3-1.7-4.4-5-4.4
			h-6.3V1318.8z"/>
		<path d="M4491.8,1340.1h-9.7v-11.2h-15.4v11.2h-9.5v-22.8c0-5.4,1.5-9.6,4.5-12.7c3-3,7.2-4.6,12.8-4.6c5.6,0,9.8,1.5,12.8,4.6
			c3,3,4.5,7.3,4.5,12.7V1340.1z M4482,1320.5v-3.2c0-5.5-2.6-8.2-7.7-8.2c-5.1,0-7.7,2.7-7.7,8.2v3.2H4482z"/>
		<path d="M4572.8,1340.1h-13.9v-39.2h13.9c6.8,0,11.9,1.8,15.6,5.3c3.6,3.5,5.4,8.3,5.4,14.3c0,6-1.8,10.8-5.4,14.3
			C4584.7,1338.3,4579.5,1340.1,4572.8,1340.1z M4568.6,1331.1h4.1c7.4,0,11.2-3.5,11.2-10.6s-3.7-10.6-11.2-10.6h-4.1V1331.1z"/>
		<path d="M4693.4,1340.1h-9.7v-11.2h-15.4v11.2h-9.5v-22.8c0-5.4,1.5-9.6,4.5-12.7c3-3,7.2-4.6,12.8-4.6c5.6,0,9.8,1.5,12.8,4.6
			c3,3,4.5,7.3,4.5,12.7V1340.1z M4683.7,1320.5v-3.2c0-5.5-2.6-8.2-7.7-8.2c-5.1,0-7.7,2.7-7.7,8.2v3.2H4683.7z"/>
		<path d="M4389.5,1412.1h-9v-31.1h-6.8v-8.1h15.8V1412.1z"/>
	</g>
</g>
<g id="Local_101_00000111903019613840376740000011775243545909937573_">
	<polygon class="st1" points="3387,1025.5 3372,922.8 3518.6,922.8 3536.6,1025.5 	"/>
	<line class="st1" x1="3518.6" y1="922.8" x2="3525.8" y2="891.2"/>
	<line class="st1" x1="3372" y1="922.8" x2="3377.6" y2="891.2"/>
	<line class="st1" x1="3387" y1="1025.5" x2="3392.6" y2="994"/>
	<line class="st1" x1="3536.6" y1="1025.5" x2="3542.6" y2="994"/>
</g>
<g id="Local_102_00000169520505147067997250000014368082078475793826_">
	<polygon class="st1" points="3408.4,1178.9 3392.6,1069.8 3541.1,1069.8 3561.4,1178.9 	"/>
	<line class="st1" x1="3408.4" y1="1178.9" x2="3414.8" y2="1147.8"/>
	<line class="st1" x1="3561.4" y1="1178.9" x2="3567.8" y2="1147.8"/>
	<line class="st1" x1="3541.1" y1="1069.8" x2="3550.9" y2="1039.8"/>
	<line class="st1" x1="3392.6" y1="1069.8" x2="3399.8" y2="1039.8"/>
</g>
<g id="Local_103_00000094619228716041165250000010242173821489079211_">
	<polygon class="st1" points="3597,1403.5 3440.2,1403.5 3419.2,1261.8 3574.1,1261.8 	"/>
	<line class="st1" x1="3597" y1="1403.5" x2="3605.2" y2="1373.1"/>
	<line class="st1" x1="3440.2" y1="1403.5" x2="3447.4" y2="1373.1"/>
	<line class="st1" x1="3419.2" y1="1261.8" x2="3425.6" y2="1232.9"/>
	<line class="st1" x1="3574.1" y1="1261.8" x2="3581.6" y2="1232.9"/>
</g>
<g id="Local_104">
	<polygon class="st1" points="3743.5,1125.5 3781.7,1328.5 4072,1328.5 4024.3,1125.5 	"/>
	<line class="st1" x1="3743.5" y1="1125.5" x2="3765.4" y2="1046.9"/>
	<line class="st1" x1="4024.3" y1="1125.5" x2="4047.4" y2="1045.8"/>
	<line class="st1" x1="4072" y1="1328.5" x2="4094.2" y2="1249.8"/>
	<line class="st1" x1="3781.7" y1="1328.5" x2="3803.6" y2="1249.8"/>
</g>
<g id="Local_105">
	<path class="st1" d="M4297.9,1125.5"/>
	<polygon class="st1" points="4078.5,1328.5 4029.9,1125.5 4297.9,1125.5 4350.9,1328.5 	"/>
	<line class="st1" x1="4029.9" y1="1125.5" x2="4053.4" y2="1045.8"/>
	<line class="st1" x1="4297.9" y1="1125.5" x2="4329.3" y2="1045.8"/>
	<line class="st1" x1="4350.9" y1="1328.5" x2="4382.2" y2="1249.8"/>
	<line class="st1" x1="4078.5" y1="1328.5" x2="4099.9" y2="1249.8"/>
</g>
<g id="Local_106">
	<polygon class="st1" points="3993.8,974.7 4029.4,1121.2 4296.7,1121.2 4258.4,974.4 	"/>
	<line class="st1" x1="3993.8" y1="974.7" x2="4017.8" y2="894.2"/>
	<line class="st1" x1="4258.4" y1="974.4" x2="4290" y2="894.2"/>
	<line class="st1" x1="4296.7" y1="1121.2" x2="4328.2" y2="1041.6"/>
	<line class="st1" x1="4029.4" y1="1121.2" x2="4051.8" y2="1041.6"/>
</g>
<g id="Local_107">
	<polygon class="st1" points="3988.8,974.7 3715.1,974.7 3742.7,1121.2 4023.4,1121.2 	"/>
	<line class="st1" x1="3988.8" y1="974.7" x2="4012.6" y2="894.2"/>
	<line class="st1" x1="4023.4" y1="1121.2" x2="4046.3" y2="1041.6"/>
	<line class="st1" x1="3742.7" y1="1121.2" x2="3764.3" y2="1041.6"/>
	<line class="st1" x1="3715.1" y1="974.7" x2="3735.2" y2="894.2"/>
</g>
<g id="Local_108">
	<polygon class="st1" points="3959.6,845.5 3690.7,845.5 3714.1,969.7 3987.4,969.7 	"/>
	<line class="st1" x1="3987.4" y1="969.7" x2="4011.4" y2="890.2"/>
	<line class="st1" x1="3959.6" y1="845.5" x2="3982.3" y2="765.5"/>
	<line class="st1" x1="3690.7" y1="845.5" x2="3710.4" y2="765.5"/>
	<line class="st1" x1="3714.1" y1="969.7" x2="3734.4" y2="890.2"/>
</g>
<g id="Local_109">
	<polygon class="st1" points="3924,686.5 3660.8,686.5 3689.8,840.7 3958.5,840.7 	"/>
	<line class="st1" x1="3958.5" y1="840.7" x2="3979.9" y2="755"/>
	<line class="st1" x1="3689.8" y1="840.7" x2="3708.4" y2="755"/>
	<line class="st1" x1="3660.8" y1="686.5" x2="3679.6" y2="605.9"/>
	<line class="st1" x1="3924" y1="686.5" x2="3945" y2="605.9"/>
</g>
<g id="Local_110">
	<path class="st1" d="M4183.2,645.6H3675l-64.6-349.1l386.1,3.5c22,0.2,40.6,3.7,71,23c31.9,20.2,43.5,59,44.5,58.3
		C4136.9,473.6,4158.3,553.3,4183.2,645.6z"/>
	<line class="st1" x1="4183.2" y1="645.6" x2="4209.7" y2="562"/>
	<line class="st1" x1="3675" y1="645.6" x2="3692.5" y2="562"/>
	<line class="st1" x1="3610.4" y1="296.5" x2="3623" y2="208.8"/>
	<line class="st1" x1="4067.5" y1="323" x2="4091.4" y2="233.3"/>
</g>
<g id="Local_111">
	<polygon class="st1" points="3380.5,463.1 3634.5,462.8 3668.5,645.6 3407.8,645.6 	"/>
	<line class="st1" x1="3407.8" y1="645.6" x2="3420.5" y2="562"/>
	<line class="st1" x1="3380.5" y1="463.1" x2="3392.4" y2="382"/>
	<line class="st1" x1="3634.5" y1="462.8" x2="3651" y2="382"/>
	<line class="st1" x1="3668.5" y1="645.6" x2="3686.5" y2="562"/>
</g>
<g id="Local_112">
	<polygon class="st1" points="3354.5,296.5 3604,296.5 3633.1,455 3379.2,455 	"/>
	<line class="st1" x1="3354.5" y1="296.5" x2="3366.5" y2="208.8"/>
	<line class="st1" x1="3604" y1="296.5" x2="3616.8" y2="208.8"/>
	<line class="st1" x1="3633.1" y1="455" x2="3650.4" y2="378.8"/>
	<line class="st1" x1="3379.2" y1="455" x2="3391.9" y2="378.8"/>
</g>
<g id="Local_113">
	<polygon class="st1" points="3168.4,645.6 3147.7,462.8 3374,463.1 3400,645.6 	"/>
	<line class="st1" x1="3168.4" y1="645.6" x2="3178.5" y2="562"/>
	<line class="st1" x1="3147.7" y1="462.8" x2="3158" y2="382"/>
	<line class="st1" x1="3374" y1="463.1" x2="3387.5" y2="382"/>
	<line class="st1" x1="3400" y1="645.6" x2="3415.5" y2="562"/>
</g>
<g id="Local_114_00000062890007850104972700000009108666868947814017_">
	<polygon class="st1" points="3142.5,462.8 3163.2,645.6 2820,645.6 2809,462.2 	"/>
	<line class="st1" x1="3142.5" y1="462.8" x2="3153" y2="382"/>
	<line class="st1" x1="2809" y1="462.2" x2="2813.5" y2="382"/>
	<line class="st1" x1="2820" y1="645.6" x2="2825.4" y2="562"/>
	<line class="st1" x1="3163.2" y1="645.6" x2="3173.5" y2="562"/>
</g>
<g id="Local_115">
	<polygon class="st1" points="2093.6,296.5 2086.5,454.4 2329.5,454.4 2329.5,296.5 	"/>
	<line class="st1" x1="2093.6" y1="296.5" x2="2089.5" y2="209.5"/>
	<line class="st1" x1="2329.5" y1="296.5" x2="2329.5" y2="209.5"/>
	<line class="st1" x1="2329.5" y1="454.4" x2="2329.5" y2="371.5"/>
	<line class="st1" x1="2086.5" y1="454.4" x2="2082.5" y2="371.5"/>
</g>
<g id="Local_116">
	<polygon class="st1" points="2045,462.5 2035.8,645.2 2329.5,645.2 2329.5,462.5 	"/>
	<line class="st1" x1="2045" y1="462.5" x2="2040.5" y2="375.5"/>
	<line class="st1" x1="2329.5" y1="462.5" x2="2329.5" y2="375.5"/>
	<line class="st1" x1="2329.5" y1="645.2" x2="2329.5" y2="563.5"/>
	<line class="st1" x1="2035.8" y1="645.2" x2="2031" y2="563.5"/>
</g>
<g id="Local_117">
	<polygon class="st1" points="1743.9,454.4 1759.5,296.5 2088,296.5 2082.2,454.4 	"/>
	<line class="st1" x1="2082.2" y1="454.4" x2="2078" y2="371.5"/>
	<line class="st1" x1="1743.9" y1="454.4" x2="1737.6" y2="371.5"/>
	<line class="st1" x1="1759.5" y1="296.5" x2="1752.8" y2="209.5"/>
	<line class="st1" x1="2088" y1="296.5" x2="2085" y2="209.5"/>
</g>
<g id="Local_118">
	<polygon class="st1" points="1743.1,462.5 2038.5,462.5 2030.2,645.2 1725,645.2 	"/>
	<line class="st1" x1="1743.1" y1="462.5" x2="1737.6" y2="375.5"/>
	<line class="st1" x1="1725" y1="645.2" x2="1719.8" y2="563.5"/>
	<line class="st1" x1="2030.2" y1="645.2" x2="2024.6" y2="563.5"/>
	<line class="st1" x1="2038.5" y1="462.5" x2="2035.8" y2="375.5"/>
</g>
<g id="Local_119">
	<polygon class="st1" points="1271.5,291.2 1214,633.5 1727.1,633.5 1758.5,291.2 	"/>
	<line class="st1" x1="1271.5" y1="291.2" x2="1257.7" y2="212.6"/>
	<line class="st1" x1="1758.5" y1="291.2" x2="1748" y2="213"/>
	<line class="st1" x1="1727.1" y1="633.5" x2="1713.5" y2="556.5"/>
	<line class="st1" x1="1214" y1="633.5" x2="1198.5" y2="556.5"/>
</g>
<g id="Local_120">
	<polygon class="st1" points="1206.2,633.5 897.8,632.4 969.9,290.2 1264.8,291.2 	"/>
	<line class="st1" x1="1206.2" y1="633.5" x2="1191.5" y2="556.5"/>
	<line class="st1" x1="897.8" y1="632.4" x2="879" y2="556.5"/>
	<line class="st1" x1="969.9" y1="290.2" x2="958.3" y2="212.4"/>
	<line class="st1" x1="1264.8" y1="291.2" x2="1252.2" y2="212.6"/>
</g>
<g id="Local_121">
	<polygon class="st1" points="903.6,640.5 1355.8,640.5 1325.8,835.4 862.5,835.4 	"/>
	<line class="st1" x1="903.6" y1="640.5" x2="884.7" y2="559.8"/>
	<line class="st1" x1="862.5" y1="835.4" x2="838.5" y2="757.8"/>
	<line class="st1" x1="1325.8" y1="835.4" x2="1313" y2="757.8"/>
	<line class="st1" x1="1355.8" y1="640.5" x2="1344" y2="559.8"/>
</g>
<g id="Local_122">
	<polygon class="st1" points="1708.5,835.4 1726.4,640.5 1362,640.5 1332,835.4 	"/>
	<line class="st1" x1="1332" y1="835.4" x2="1319.5" y2="757.8"/>
	<line class="st1" x1="1362" y1="640.5" x2="1349.5" y2="559.8"/>
	<line class="st1" x1="1726.4" y1="640.5" x2="1713.1" y2="559.8"/>
	<line class="st1" x1="1708.5" y1="835.4" x2="1693.2" y2="757.8"/>
</g>
<g id="Local_123_00000147186759618914156060000006365573593048360613_">
	<polygon class="st1" points="1502.9,1134.5 1694.3,1134.5 1700.2,1057.7 1509.7,1057.7 	"/>
	<path class="st1" d="M1695.5,1080.2"/>
	<line class="st1" x1="1700.2" y1="1057.7" x2="1693.2" y2="990.6"/>
	<line class="st1" x1="1694.3" y1="1134.5" x2="1684.9" y2="1057.7"/>
	<line class="st1" x1="1502.9" y1="1134.5" x2="1489.1" y2="1057.7"/>
	<line class="st1" x1="1509.7" y1="1057.7" x2="1498.5" y2="976.4"/>
</g>
<g id="Local_124_00000091006266191437740770000004792193841723800511_">
	<polygon class="st1" points="1505.3,1077.4 1534.5,841.4 1149.5,841.4 1110.6,1077.4 	"/>
	<line class="st1" x1="1505.3" y1="1077.4" x2="1488.5" y2="1000.5"/>
	<line class="st1" x1="1534.5" y1="841.4" x2="1518" y2="762.5"/>
	<line class="st1" x1="1149.5" y1="841.4" x2="1135.6" y2="762.5"/>
	<line class="st1" x1="1110.6" y1="1077.4" x2="1093.7" y2="1000.5"/>
</g>
<g id="Local_125_00000171703417370365723180000004487736962847065760_">
	<polygon class="st1" points="1143.5,841.4 1104.6,1077.4 810.9,1077.4 861.5,841.4 	"/>
	<line class="st1" x1="1143.5" y1="841.4" x2="1129.6" y2="762.5"/>
	<line class="st1" x1="861.5" y1="841.4" x2="836.2" y2="762.5"/>
	<line class="st1" x1="810.9" y1="1077.4" x2="783.6" y2="1000.5"/>
	<line class="st1" x1="1104.6" y1="1077.4" x2="1087.8" y2="1000.5"/>
</g>
<g id="Local_126_00000056397841910981939420000001393438190885674162_">
	<polygon class="st1" points="1103.5,1084.2 1063.5,1326.7 757.3,1327 809.4,1084.2 	"/>
	<line class="st1" x1="1103.5" y1="1084.2" x2="1086.9" y2="1005.4"/>
	<line class="st1" x1="809.4" y1="1084.2" x2="782.5" y2="1005.4"/>
	<line class="st1" x1="757.3" y1="1327" x2="728.7" y2="1248.2"/>
	<line class="st1" x1="1063.5" y1="1326.7" x2="1044.2" y2="1248.2"/>
</g>
<g id="Local_127_00000087374534461460017360000004801352135298396090_">
	<polygon class="st1" points="1109.5,1084.2 1069.5,1326.7 1474.5,1326.2 1504.5,1084.2 	"/>
	<line class="st1" x1="1109.5" y1="1084.2" x2="1092.8" y2="1005.4"/>
	<line class="st1" x1="1069.5" y1="1326.7" x2="1050" y2="1248.2"/>
	<line class="st1" x1="1474.5" y1="1326.2" x2="1457.8" y2="1248.2"/>
	<line class="st1" x1="1504.5" y1="1084.2" x2="1487.9" y2="1005.4"/>
</g>
<g id="Local_128_00000153691551230539303700000008535457933147864240_">
	<polygon class="st1" points="717.5,1511.5 1031,1511.5 987,1770 662.7,1770 	"/>
	<line class="st1" x1="717.5" y1="1511.5" x2="691.5" y2="1432.8"/>
	<line class="st1" x1="1031" y1="1511.5" x2="1011.1" y2="1432.8"/>
	<line class="st1" x1="987" y1="1770" x2="964.8" y2="1693"/>
	<line class="st1" x1="662.7" y1="1770" x2="634.9" y2="1693"/>
</g>
<g id="Local_129_00000000201928065137131140000017197328976072887479_">
	<polygon class="st1" points="661.6,1775 606.8,2033.4 942.8,2033.4 987,1775 	"/>
	<line class="st1" x1="942.8" y1="2033.4" x2="917.4" y2="1959.5"/>
	<line class="st1" x1="606.8" y1="2033.4" x2="576.9" y2="1959.5"/>
	<line class="st1" x1="661.6" y1="1775" x2="633.7" y2="1698.5"/>
	<line class="st1" x1="987" y1="1775" x2="963.9" y2="1698.5"/>
</g>
<g id="Local_130_00000137129894352956558320000002811213848027996551_">
	<polygon class="st1" points="1335.4,1511.5 1036,1511.5 948.8,2033.4 1265.4,2033.4 	"/>
	<line class="st1" x1="1265.4" y1="2033.4" x2="1248.1" y2="1959.5"/>
	<line class="st1" x1="948.8" y1="2033.4" x2="925.3" y2="1959.5"/>
	<line class="st1" x1="1036" y1="1511.5" x2="1016.5" y2="1432.8"/>
	<line class="st1" x1="1335.4" y1="1511.5" x2="1321.5" y2="1432.8"/>
</g>
<g id="Local_131_00000133501203637693909200000005866041736053051035_">
	<polygon class="st1" points="1308.3,1769.5 1631.5,1769.5 1655.9,1510.5 1343,1510.5 	"/>
	<line class="st1" x1="1343" y1="1510.5" x2="1327.9" y2="1432.8"/>
	<line class="st1" x1="1308.3" y1="1769.5" x2="1292.9" y2="1692.5"/>
	<line class="st1" x1="1631.5" y1="1769.5" x2="1617.8" y2="1692.5"/>
	<line class="st1" x1="1655.9" y1="1510.5" x2="1641.4" y2="1432.8"/>
</g>
<g id="Local_132_00000035490835935124405260000015371024704390208415_">
	<polygon class="st1" points="1307.6,1775 1631,1775 1606.7,2033.4 1273,2033.4 	"/>
	<line class="st1" x1="1606.7" y1="2033.4" x2="1593.5" y2="1959.5"/>
	<line class="st1" x1="1631" y1="1775" x2="1617.2" y2="1698.9"/>
	<line class="st1" x1="1307.6" y1="1775" x2="1292" y2="1698.9"/>
	<line class="st1" x1="1273" y1="2033.4" x2="1256.9" y2="1959.5"/>
</g>
<g id="Local_133_00000132051922194187500080000004185406106440079277_">
	<polygon class="st1" points="605.3,2040.5 1264.4,2040.5 1231.5,2285.5 553.4,2285.5 	"/>
	<line class="st1" x1="553.4" y1="2285.5" x2="522.1" y2="2211.6"/>
	<line class="st1" x1="605.3" y1="2040.5" x2="575.7" y2="1965"/>
	<line class="st1" x1="1264.4" y1="2040.5" x2="1247.3" y2="1965"/>
	<line class="st1" x1="1231.5" y1="2285.5" x2="1212.9" y2="2211.6"/>
</g>
<g id="Local_134_00000076592511031014039150000009341154454688698790_">
	<polygon class="st1" points="1239.3,2285.5 1272.1,2040.5 1606,2040.5 1583,2285.5 	"/>
	<line class="st1" x1="1272.1" y1="2040.5" x2="1256.1" y2="1965"/>
	<line class="st1" x1="1606" y1="2040.5" x2="1593" y2="1965"/>
	<line class="st1" x1="1239.3" y1="2285.5" x2="1222.9" y2="2211.6"/>
	<line class="st1" x1="1583" y1="2285.5" x2="1570.6" y2="2211.6"/>
</g>
<g id="Local_135_00000028299400662592917110000018194360168372349119_">
	<polygon class="st1" points="1209.5,2508.5 1561.9,2509.1 1582.6,2292.5 1238.4,2291.9 	"/>
	<line class="st1" x1="1209.5" y1="2508.5" x2="1192.4" y2="2437.5"/>
	<line class="st1" x1="1238.4" y1="2291.9" x2="1222" y2="2218.5"/>
	<line class="st1" x1="1582.6" y1="2292.5" x2="1569.9" y2="2220.5"/>
	<line class="st1" x1="1562.4" y1="2508.5" x2="1550" y2="2437.5"/>
</g>
<g id="Local_136_00000085967805378749096630000018305626585051082427_">
	<path class="st1" d="M482,2621.9l70-330h678.7l-62.5,465.5H593.2c-6,0.1-54.6,0.2-88.2-40.5C471,2675.9,480.7,2627.7,482,2621.9z"
		/>
	<line class="st1" x1="552" y1="2291.9" x2="520.6" y2="2218.5"/>
	<line class="st1" x1="1230.7" y1="2291.9" x2="1212" y2="2218.5"/>
	<line class="st1" x1="1168.2" y1="2757.5" x2="1146" y2="2691.6"/>
	<line class="st1" x1="516.8" y1="2729.2" x2="494.2" y2="2655.2"/>
</g>
<g id="Local_137_00000034057549369941926280000018135085572730091910_">
	<path class="st1" d="M1536.6,2757.5"/>
	<polygon class="st1" points="1208.5,2515.5 1561.8,2515.5 1538.6,2757.5 1176.2,2757.5 	"/>
	<line class="st1" x1="1208.5" y1="2515.5" x2="1191.6" y2="2444"/>
	<line class="st1" x1="1176.2" y1="2757.5" x2="1158.2" y2="2691.6"/>
	<line class="st1" x1="1538.6" y1="2757.5" x2="1526.9" y2="2691.6"/>
	<line class="st1" x1="1561.8" y1="2515.5" x2="1549.4" y2="2444"/>
</g>
<g id="Local_138_00000127745935327903664800000009911286717797848248_">
	<polygon class="st1" points="2012.2,1027.4 1863.5,1027.4 1855.9,1137.6 2008.6,1137.6 	"/>
	<line class="st1" x1="2012.2" y1="1027.4" x2="2010.4" y2="1000"/>
	<line class="st1" x1="1863.5" y1="1027.4" x2="1861.9" y2="1000"/>
	<line class="st1" x1="1855.9" y1="1137.6" x2="1852.5" y2="1107.2"/>
	<line class="st1" x1="2008.6" y1="1137.6" x2="2005.1" y2="1107.2"/>
</g>
<g id="Local_139">
	<polygon class="st1" points="2283.4,1404.2 2126.6,1404.2 2126.6,1305.2 2284.4,1305.2 	"/>
	<line class="st1" x1="2284.4" y1="1305.2" x2="2284.4" y2="1259.5"/>
	<line class="st1" x1="2126.6" y1="1305.2" x2="2128.5" y2="1259.5"/>
</g>
<g id="Local_140">
	<polygon class="st1" points="2623.1,1404.2 2619.8,1304.5 2768,1304.5 2779.9,1404.2 	"/>
	<line class="st1" x1="2779.9" y1="1404.2" x2="2782.5" y2="1374.6"/>
	<line class="st1" x1="2623.1" y1="1404.2" x2="2625.8" y2="1374.6"/>
	<line class="st1" x1="2619.8" y1="1304.5" x2="2622.1" y2="1259.9"/>
	<line class="st1" x1="2768" y1="1304.5" x2="2776.1" y2="1259.9"/>
</g>
<g id="Local_141_00000142877479862030437050000012507768293763254445_">
	<line class="st1" x1="1916" y1="1692.6" x2="1926.2" y2="1767.6"/>
	<line class="st1" x1="1939.5" y1="1515.2" x2="1931" y2="1435.5"/>
	<polygon class="st1" points="2192.2,1515.2 2185.5,1767.6 1926.2,1767.6 1939.5,1515.2 	"/>
	<line class="st1" x1="2192.2" y1="1515.2" x2="2194.5" y2="1435.5"/>
</g>
<g id="Local_142">
	<polygon class="st1" points="2465,1515.2 2466.8,1767.6 2194.5,1767.6 2198.4,1515.2 	"/>
	<line class="st1" x1="2194.5" y1="1767.6" x2="2194.5" y2="1692.6"/>
	<line class="st1" x1="2198.4" y1="1515.2" x2="2200.1" y2="1435.5"/>
	<line class="st1" x1="2465" y1="1515.2" x2="2464.2" y2="1435.5"/>
	<line class="st1" x1="2466.8" y1="1767.6" x2="2466.8" y2="1692.6"/>
</g>
<g id="Local_143_00000105401650157450669140000011045118035823701130_">
	<polygon class="st1" points="2381.2,1774 2381.2,1971.2 1916,1971.2 1926.2,1774 	"/>
	<line class="st1" x1="1926.2" y1="1774" x2="1915.5" y2="1698.5"/>
	<line class="st1" x1="2381.2" y1="1774" x2="2381.2" y2="1698.5"/>
	<line class="st1" x1="2381.2" y1="1971.2" x2="2381.2" y2="1884.5"/>
	<line class="st1" x1="1916" y1="1971.2" x2="1905.3" y2="1884.5"/>
</g>
<g id="Local_144">
	<polygon class="st1" points="2694,1515.2 2704.4,1767.6 2476.5,1767.6 2470.2,1515.2 	"/>
	<line class="st1" x1="2470.4" y1="1435.5" x2="2470.2" y2="1515.2"/>
	<path class="st1" d="M2474.3,1692.6"/>
	<line class="st1" x1="2694" y1="1515.2" x2="2698.2" y2="1435.5"/>
	<line class="st1" x1="2704.4" y1="1767.6" x2="2709" y2="1692.6"/>
</g>
<g id="Local_145">
	<polygon class="st1" points="2698.9,1515.2 2944.9,1515.2 2964.1,1767.6 2710.1,1767.6 	"/>
	<line class="st1" x1="2715.5" y1="1692.6" x2="2710.1" y2="1767.6"/>
	<line class="st1" x1="2698.9" y1="1515.2" x2="2704.4" y2="1435.5"/>
	<line class="st1" x1="2944.9" y1="1515.2" x2="2953.5" y2="1435.5"/>
	<line class="st1" x1="2964.1" y1="1767.6" x2="2973.4" y2="1692.6"/>
</g>
<g id="Local_146_00000109714954316224456830000004896872450961384888_">
	<polygon class="st1" points="2971.8,1767.6 3272.8,1767.6 3245.6,1516.4 2953.5,1516.4 	"/>
	<line class="st1" x1="2953.5" y1="1516.4" x2="2960.5" y2="1435.5"/>
	<line class="st1" x1="3245.6" y1="1516.4" x2="3257.2" y2="1435.5"/>
	<line class="st1" x1="3272.8" y1="1767.6" x2="3286.6" y2="1692"/>
	<line class="st1" x1="2971.8" y1="1767.6" x2="2981.6" y2="1692"/>
</g>
<g id="Local_147_00000060003170591707090840000003092254512336271247_">
	<polygon class="st1" points="3357.6,1508.9 3531.6,1508.9 3571,1767.6 3391,1767.6 	"/>
	<line class="st1" x1="3571" y1="1767.6" x2="3590.6" y2="1692"/>
	<line class="st1" x1="3391" y1="1767.6" x2="3406.1" y2="1692"/>
	<line class="st1" x1="3531.6" y1="1508.9" x2="3550.9" y2="1427.5"/>
	<line class="st1" x1="3357.6" y1="1508.9" x2="3371" y2="1427.5"/>
</g>
<g id="Local_148_00000112601021742825537220000003550774149575727007_">
	<polygon class="st1" points="3869.2,1767.3 3822,1513 3539.5,1513 3578,1767.6 	"/>
	<line class="st1" x1="3578" y1="1767.6" x2="3598.1" y2="1692"/>
	<line class="st1" x1="3868.6" y1="1767.6" x2="3891.5" y2="1692"/>
	<line class="st1" x1="3539.5" y1="1513" x2="3558.8" y2="1433.5"/>
	<line class="st1" x1="3822" y1="1513" x2="3844.2" y2="1433.5"/>
</g>
<g id="Local_149_00000065760982768288368190000007419737571969932704_">
	<polygon class="st1" points="3579.1,1775 3609,1966 3906.8,1966 3870.6,1774.5 	"/>
	<line class="st1" x1="3893.8" y1="1698.5" x2="3870.6" y2="1774.5"/>
	<line class="st1" x1="3579.1" y1="1775" x2="3599.1" y2="1698.5"/>
	<line class="st1" x1="3609" y1="1966" x2="3628.5" y2="1891.5"/>
	<line class="st1" x1="3906.8" y1="1966" x2="3930.8" y2="1891.5"/>
</g>
<g id="Local_150">
	<polyline class="st1" points="4110.8,1513 3829,1513 3877.2,1767.6 4167.9,1768.2 4110.8,1513 4136,1433.5 	"/>
	<line class="st1" x1="3850.7" y1="1433.5" x2="3829" y2="1513"/>
	<line class="st1" x1="4167.9" y1="1768.2" x2="4195.4" y2="1693.4"/>
	<line class="st1" x1="3877.2" y1="1767.6" x2="3900.5" y2="1693.4"/>
</g>
<g id="Local_151">
	<polygon class="st1" points="3878.6,1774.6 3914.8,1965.9 4212.8,1965.9 4169.4,1774.6 	"/>
	<line class="st1" x1="3914.8" y1="1965.9" x2="3938.6" y2="1891.5"/>
	<line class="st1" x1="4212.8" y1="1965.9" x2="4241.2" y2="1891.5"/>
	<line class="st1" x1="3878.6" y1="1774.6" x2="3901.9" y2="1697.9"/>
	<line class="st1" x1="4169.4" y1="1774.6" x2="4197.8" y2="1697.9"/>
</g>
<g id="Local_152">
	<polygon class="st1" points="4175.2,1768 4118,1513 4412,1513 4479.5,1768 	"/>
	<line class="st1" x1="4203.5" y1="1692.4" x2="4175.2" y2="1768"/>
	<line class="st1" x1="4479.5" y1="1768" x2="4514.8" y2="1691.4"/>
	<line class="st1" x1="4412" y1="1513" x2="4443.5" y2="1433.5"/>
	<line class="st1" x1="4118" y1="1513" x2="4143.4" y2="1433.5"/>
</g>
<g id="Lolcal_153">
	<polygon class="st1" points="4221.2,1965.9 4533.4,1965.9 4481.8,1774.9 4176.7,1774.6 	"/>
	<line class="st1" x1="4481.8" y1="1774.9" x2="4517.5" y2="1698.8"/>
	<line class="st1" x1="4221.2" y1="1965.9" x2="4250.5" y2="1891.5"/>
	<line class="st1" x1="4533.4" y1="1965.9" x2="4568.5" y2="1891.5"/>
	<line class="st1" x1="4176.7" y1="1774.6" x2="4205.2" y2="1698.8"/>
</g>
<g id="Local_154">
	<polygon class="st2" points="3025.1,963.2 3018.8,865.8 3205.5,865.8 3218.1,963.2 	"/>
	<line class="st2" x1="3205.5" y1="865.8" x2="3218.1" y2="785.5"/>
	<line class="st2" x1="3018.8" y1="865.8" x2="3027" y2="785.5"/>
	<line class="st2" x1="3218.1" y1="963.2" x2="3229.5" y2="881.5"/>
	<line class="st2" x1="3025.1" y1="963.2" x2="3038.3" y2="881.2"/>
</g>
</svg>
