<?xml version="1.0" encoding="utf-8"?>
<!-- Generator: Adobe Illustrator 26.0.0, SVG Export Plug-In . SVG Version: 6.00 Build 0)  -->
<svg version="1.1" xmlns="http://www.w3.org/2000/svg" xmlns:xlink="http://www.w3.org/1999/xlink" x="0px" y="0px"
	 viewBox="0 0 5224.6 3308.2" style="enable-background:new 0 0 5224.6 3308.2;" xml:space="preserve">
<style type="text/css">
	.st0{fill:none;}
	.st1{fill:none;stroke:#000000;stroke-miterlimit:10;}
</style>
<g id="Imagen">
	
		<image style="overflow:visible;" width="7000" height="3937" id="Segundo_piso_00000111896904525643977670000000578439493084053666_" xlink:href="C:\Users\1\Desktop\BootCamp-DWFS\Practica SVG\assets\Img\planta segundo piso.png"  transform="matrix(1 0 0 1 -887.5 -314.195)">
	</image>
</g>
<g id="Textos">
	<g>
		<rect x="888.2" y="1607.2" class="st0" width="1174.3" height="307.3"/>
		<path d="M949.7,1693.3h-13v-52.3h20.6c6.8,0,12,1.7,15.4,5c3.4,3.3,5.2,7.8,5.2,13.4c0,5.6-1.7,10.1-5.2,13.4
			c-3.4,3.4-8.6,5-15.4,5h-7.6V1693.3z M949.7,1665.8h7.8c4.8,0,7.2-2.2,7.2-6.5c0-4.3-2.4-6.4-7.2-6.4h-7.8V1665.8z"/>
		<path d="M1102.6,1693.3h-37.7v-52.3h13v40.3h24.7V1693.3z"/>
		<path d="M1234.9,1693.3h-13v-14.9h-20.5v14.9h-12.6v-30.4c0-7.2,2-12.8,6-16.9c4-4.1,9.6-6.1,17-6.1c7.4,0,13.1,2,17.1,6.1
			c4,4.1,6,9.7,6,16.9V1693.3z M1221.9,1667.2v-4.3c0-7.3-3.4-11-10.2-11c-6.8,0-10.2,3.7-10.2,11v4.3H1221.9z"/>
		<path d="M1363.1,1652.5l-24.1,28.6v0.2h24.9v12h-41.4v-11.6l24.1-28.6v-0.2h-22.9v-12h39.4V1652.5z"/>
		<path d="M1497.3,1647.6c5.2,5.1,7.8,11.6,7.8,19.5c0,7.9-2.6,14.4-7.8,19.5c-5.2,5.1-11.9,7.7-20,7.7c-8.1,0-14.8-2.6-20-7.7
			c-5.2-5.1-7.8-11.6-7.8-19.5c0-7.9,2.6-14.4,7.8-19.5c5.2-5.1,11.9-7.7,20-7.7C1485.4,1639.9,1492,1642.5,1497.3,1647.6z
			 M1466.6,1678c2.7,2.9,6.3,4.3,10.6,4.3c4.4,0,7.9-1.4,10.6-4.3c2.7-2.9,4.1-6.5,4.1-10.9c0-4.4-1.4-8.1-4.1-10.9
			c-2.7-2.9-6.3-4.3-10.6-4.3c-4.4,0-7.9,1.4-10.6,4.3c-2.7,2.9-4.1,6.5-4.1,10.9C1462.5,1671.5,1463.9,1675.2,1466.6,1678z"/>
		<path d="M1630.9,1693.3h-37.7v-52.3h13v40.3h24.7V1693.3z"/>
		<path d="M1756.9,1693.3h-38.6v-52.3h38.6v12h-25.7v8.6h21v10.4h-21v9.4h25.7V1693.3z"/>
		<path d="M1870,1693.3h-13v-40.3h-14.2v-12h41.5v12H1870V1693.3z"/>
		<path d="M2015,1693.3h-13v-14.9h-20.5v14.9h-12.6v-30.4c0-7.2,2-12.8,6-16.9c4-4.1,9.6-6.1,17-6.1c7.4,0,13.1,2,17.1,6.1
			c4,4.1,6,9.7,6,16.9V1693.3z M2002.1,1667.2v-4.3c0-7.3-3.4-11-10.2-11c-6.8,0-10.2,3.7-10.2,11v4.3H2002.1z"/>
		<path d="M1408,1789.3h-18.5v-52.3h18.5c9,0,15.9,2.3,20.8,7c4.8,4.7,7.2,11.1,7.2,19.1c0,8.1-2.4,14.4-7.2,19.1
			C1424,1786.9,1417,1789.3,1408,1789.3z M1402.5,1777.3h5.5c9.9,0,14.9-4.7,14.9-14.2c0-9.4-5-14.2-14.9-14.2h-5.5V1777.3z"/>
		<path d="M1562.7,1789.3h-38.6v-52.3h38.6v12h-25.7v8.6h21v10.4h-21v9.4h25.7V1789.3z"/>
		<path d="M1106.6,1852.8h-13.7c-1.1-2.7-2.8-4.9-5.2-6.5c-2.4-1.6-5.2-2.4-8.4-2.4c-4.4,0-7.9,1.4-10.6,4.3
			c-2.7,2.9-4.1,6.5-4.1,10.9c0,4.4,1.4,8.1,4.1,10.9c2.7,2.9,6.3,4.3,10.6,4.3c3.2,0,6-0.8,8.4-2.4c2.4-1.6,4.1-3.8,5.2-6.5h13.7
			c-1.3,6.2-4.5,11.3-9.4,15.1c-4.9,3.8-10.9,5.8-17.8,5.8c-8.1,0-14.8-2.6-20-7.7c-5.2-5.1-7.8-11.6-7.8-19.5
			c0-7.9,2.6-14.4,7.8-19.5c5.2-5.1,11.9-7.7,20-7.7c6.9,0,12.9,1.9,17.8,5.8C1102.1,1841.5,1105.3,1846.5,1106.6,1852.8z"/>
		<path d="M1239.5,1839.6c5.2,5.1,7.8,11.6,7.8,19.5c0,7.9-2.6,14.4-7.8,19.5c-5.2,5.1-11.9,7.7-20,7.7c-8.1,0-14.8-2.6-20-7.7
			c-5.2-5.1-7.8-11.6-7.8-19.5c0-7.9,2.6-14.4,7.8-19.5c5.2-5.1,11.9-7.7,20-7.7C1227.6,1831.9,1234.2,1834.5,1239.5,1839.6z
			 M1208.8,1870c2.7,2.9,6.3,4.3,10.6,4.3c4.4,0,7.9-1.4,10.6-4.3c2.7-2.9,4.1-6.5,4.1-10.9c0-4.4-1.4-8.1-4.1-10.9
			c-2.7-2.9-6.3-4.3-10.6-4.3c-4.4,0-7.9,1.4-10.6,4.3c-2.7,2.9-4.1,6.5-4.1,10.9C1204.7,1863.5,1206.1,1867.2,1208.8,1870z"/>
		<path d="M1347.1,1852.1v33.1h-13v-33.1c0-6.7,1.7-11.8,5.2-15.2c3.4-3.4,8-5.1,13.6-5.1c6.5,0,11.3,2.4,14.4,7.1h0.2
			c3.1-4.7,7.9-7.1,14.4-7.1c5.6,0,10.1,1.7,13.6,5.1c3.4,3.4,5.2,8.4,5.2,15.2v33.1h-13v-33.1c0-5.5-2.3-8.2-6.9-8.2
			c-4.6,0-6.9,2.7-6.9,8.2v33.1h-13v-33.1c0-5.5-2.3-8.2-6.9-8.2C1349.4,1843.9,1347.1,1846.6,1347.1,1852.1z"/>
		<path d="M1503.1,1885.3h-13v-52.3h13V1885.3z"/>
		<path d="M1612.3,1885.3h-18.5v-52.3h18.5c9,0,15.9,2.3,20.8,7c4.8,4.7,7.2,11.1,7.2,19.1c0,8.1-2.4,14.4-7.2,19.1
			C1628.2,1882.9,1621.3,1885.3,1612.3,1885.3z M1606.7,1873.3h5.5c9.9,0,14.9-4.7,14.9-14.2c0-9.4-5-14.2-14.9-14.2h-5.5V1873.3z"
			/>
		<path d="M1773.1,1885.3h-13v-14.9h-20.5v14.9h-12.6v-30.4c0-7.2,2-12.8,6-16.9c4-4.1,9.6-6.1,17-6.1c7.4,0,13.1,2,17.1,6.1
			c4,4.1,6,9.7,6,16.9V1885.3z M1760.2,1859.2v-4.3c0-7.3-3.4-11-10.2-11c-6.8,0-10.2,3.7-10.2,11v4.3H1760.2z"/>
		<path d="M1898.4,1848.6h-12.2c-0.1-1.6-0.6-2.9-1.7-3.9c-1.1-1-2.7-1.5-4.8-1.5c-2.2,0-3.8,0.5-4.9,1.6c-1.1,1.1-1.6,2.4-1.6,3.9
			c0,1.2,0.5,2.2,1.4,2.9c0.9,0.7,2.2,1.2,3.7,1.5c1.5,0.3,3.2,0.6,5,0.9c1.8,0.3,3.7,0.8,5.5,1.4c1.8,0.6,3.5,1.4,5.1,2.4
			c1.5,1,2.8,2.5,3.7,4.5c1,2,1.4,4.4,1.4,7.1c0,5.2-1.8,9.3-5.4,12.4c-3.6,3.1-8.3,4.6-14.3,4.6c-5.9,0-10.6-1.5-14.2-4.4
			c-3.6-3-5.4-7-5.5-12h12.6c0,3.6,2.3,5.4,7,5.4c4.7,0,7-1.8,7-5.4c0-1.2-0.5-2.1-1.4-2.8c-1-0.7-2.2-1.2-3.7-1.5
			c-1.5-0.3-3.2-0.6-5-0.9c-1.8-0.3-3.7-0.8-5.5-1.4c-1.8-0.6-3.5-1.4-5-2.4c-1.5-1-2.7-2.5-3.7-4.6c-1-2-1.4-4.5-1.4-7.3
			c0-5,1.7-9.1,5.2-12.2c3.5-3.1,8-4.7,13.6-4.7c5.5,0,9.9,1.5,13.4,4.6C1896.4,1839.7,1898.2,1843.7,1898.4,1848.6z"/>
	</g>
	<g>
		<rect x="947.6" y="351.1" class="st0" width="1827.4" height="307.3"/>
		<path d="M1188.1,497.1h-25.6c-2-5.1-5.2-9.1-9.7-12.1c-4.5-3-9.7-4.5-15.7-4.5c-8.2,0-14.8,2.7-19.9,8c-5.1,5.4-7.6,12.2-7.6,20.5
			c0,8.3,2.5,15.1,7.6,20.5c5.1,5.4,11.7,8,19.9,8c6,0,11.2-1.5,15.7-4.5c4.4-3,7.7-7,9.7-12.2h25.6c-2.5,11.7-8.4,21.2-17.6,28.4
			c-9.3,7.2-20.4,10.8-33.4,10.8c-15.2,0-27.7-4.8-37.5-14.4c-9.8-9.6-14.7-21.8-14.7-36.6c0-14.8,4.9-27,14.7-36.6
			c9.8-9.6,22.3-14.4,37.5-14.4c13,0,24.1,3.6,33.4,10.8C1179.7,475.9,1185.6,485.4,1188.1,497.1z"/>
		<path d="M1421.8,558h-24.3v-98.1h24.3V558z"/>
		<path d="M1718.6,558h-24.3v-58.8c0-12.5-5.9-18.8-17.7-18.8c-11.8,0-17.7,6.3-17.7,18.8V558h-24.3v-58.8c0-12.8,3.6-22.9,11-30.2
			c7.3-7.3,17.6-11,31-11c13.4,0,23.7,3.7,31.1,11c7.3,7.4,10.9,17.4,10.9,30.2V558z"/>
		<path d="M2003.9,558h-72.5v-98.1h72.5v22.5h-48.1v16h39.4v19.5h-39.4v17.5h48.1V558z"/>
		<path d="M2237.9,495.9V558h-24.3v-62.1c0-12.6,3.2-22.1,9.7-28.4c6.4-6.3,14.9-9.5,25.4-9.5c12.2,0,21.2,4.5,27,13.3h0.3
			c5.8-8.9,14.8-13.3,27-13.3c10.5,0,19,3.2,25.4,9.5c6.5,6.4,9.7,15.8,9.7,28.4V558h-24.3v-62.1c0-10.3-4.3-15.5-12.9-15.5
			c-8.6,0-12.9,5.2-12.9,15.5V558h-24.3v-62.1c0-10.3-4.3-15.5-12.9-15.5C2242.2,480.4,2237.9,485.6,2237.9,495.9z"/>
		<path d="M2635,558h-24.3v-27.9h-38.4V558h-23.7v-57c0-13.5,3.7-24,11.2-31.7c7.4-7.6,18.1-11.4,31.9-11.4
			c13.9,0,24.6,3.8,32.1,11.4c7.5,7.6,11.2,18.2,11.2,31.7V558z M2610.7,509.1V501c0-13.7-6.4-20.5-19.2-20.5
			c-12.8,0-19.2,6.9-19.2,20.5v8.1H2610.7z"/>
	</g>
</g>
<g id="Local_201_00000044155908922757162980000005148185888723876248_">
	<polygon class="st1" points="3613.3,1008.9 3760.2,1008.9 3777.9,1112 3629.1,1112 	"/>
	<line class="st1" x1="3760.2" y1="1008.9" x2="3767.8" y2="976.6"/>
	<line class="st1" x1="3613.3" y1="1008.9" x2="3620.4" y2="976.6"/>
	<line class="st1" x1="3777.9" y1="1112" x2="3784.7" y2="1082.4"/>
	<line class="st1" x1="3629.1" y1="1112" x2="3636.1" y2="1082.4"/>
</g>
<g id="Local_202_00000039129790245301524020000017359195792176050604_">
	<polygon class="st1" points="3650.4,1266.9 3803.1,1266.9 3785.1,1161.5 3634.3,1161.5 	"/>
	<line class="st1" x1="3650.4" y1="1266.9" x2="3657.9" y2="1235.4"/>
	<line class="st1" x1="3803.1" y1="1266.9" x2="3809.4" y2="1235.4"/>
	<line class="st1" x1="3785.1" y1="1161.5" x2="3792.6" y2="1127.7"/>
	<line class="st1" x1="3634.3" y1="1161.5" x2="3642.2" y2="1127.7"/>
</g>
<g id="Local_203_00000037664150225411273490000016545720621206742685_">
	<polygon class="st1" points="3660.9,1350.9 3813.9,1350.9 3835.3,1492.2 3682.3,1492.2 	"/>
	<line class="st1" x1="3813.9" y1="1350.9" x2="3823.7" y2="1320.9"/>
	<line class="st1" x1="3660.9" y1="1350.9" x2="3668.8" y2="1320.9"/>
	<line class="st1" x1="3835.3" y1="1492.2" x2="3846.9" y2="1463.4"/>
	<line class="st1" x1="3682.3" y1="1492.2" x2="3689.8" y2="1463.4"/>
</g>
<g id="Local_204_00000018198093210517950470000011515335312398871971_">
	<path class="st1" d="M4289.6,1132.6"/>
	<polygon class="st1" points="4312.8,1416.9 4269.3,1212 3985.8,1212 4023.9,1416.9 	"/>
	<line class="st1" x1="4312.8" y1="1416.9" x2="4335.9" y2="1338.6"/>
	<line class="st1" x1="4269.3" y1="1212" x2="4289.6" y2="1132.6"/>
	<line class="st1" x1="3985.8" y1="1212" x2="4005.8" y2="1132.6"/>
	<line class="st1" x1="4023.9" y1="1416.9" x2="4045.4" y2="1338.6"/>
</g>
<g id="Local_205_00000066507703460726273950000006973719292601264773_">
	<polygon class="st1" points="4276.9,1212 4551.1,1212 4604.9,1416.9 4319.2,1416.9 	"/>
	<line class="st1" x1="4276.9" y1="1212" x2="4295.7" y2="1132.6"/>
	<line class="st1" x1="4551.1" y1="1212" x2="4579.3" y2="1132.6"/>
	<line class="st1" x1="4604.9" y1="1416.9" x2="4633.2" y2="1338.6"/>
	<line class="st1" x1="4319.2" y1="1416.9" x2="4342.8" y2="1338.6"/>
</g>
<g id="Local_206_00000065057530991230763140000007534970329378435488_">
	<line class="st1" x1="3984.6" y1="1205.5" x2="4004.9" y2="1128.1"/>
	<polygon class="st1" points="4511.5,1061.2 3957.8,1061.2 3984.6,1205.5 4549.4,1205.5 	"/>
	<line class="st1" x1="4511.5" y1="1061.2" x2="4539.5" y2="980.4"/>
	<line class="st1" x1="4549.4" y1="1205.5" x2="4578.2" y2="1128.1"/>
	<line class="st1" x1="3957.8" y1="1061.2" x2="3976.5" y2="980.4"/>
</g>
<g id="Local_207_00000129923215826160133710000004845690515442361512_">
	<polygon class="st1" points="3933.5,930.6 3956.9,1056.5 4229.6,1056.5 4201.4,930.6 	"/>
	<line class="st1" x1="4229.6" y1="1056.5" x2="4253.2" y2="975.5"/>
	<line class="st1" x1="3956.9" y1="1056.5" x2="3975.6" y2="975.5"/>
	<line class="st1" x1="3933.5" y1="930.6" x2="3951.4" y2="849.9"/>
	<line class="st1" x1="4201.4" y1="930.6" x2="4224.3" y2="849.9"/>
</g>
<g id="Local_208_00000151531891264947917460000017565841521169788340_">
	<path class="st1" d="M4198.6,917.9"/>
	<path class="st1" d="M3949.3,839"/>
	<polygon class="st1" points="3903.8,770.6 4165.7,770.6 4199,919.7 3931.5,919.7 	"/>
	<line class="st1" x1="3931.5" y1="919.7" x2="3949.3" y2="839"/>
	<line class="st1" x1="4199" y1="919.7" x2="4221.8" y2="839"/>
	<line class="st1" x1="4165.7" y1="770.6" x2="4187.4" y2="689.7"/>
	<line class="st1" x1="3903.8" y1="770.6" x2="3920.6" y2="689.7"/>
</g>
<g id="Local_209_00000145740803005037015010000015537375088432167596_">
	<polygon class="st1" points="3844.7,377.6 3599.1,377.5 3652.7,727.1 3914.4,727.1 	"/>
	<line class="st1" x1="3844.7" y1="377.6" x2="3861.2" y2="295.6"/>
	<line class="st1" x1="3914.4" y1="727.1" x2="3929.4" y2="647.6"/>
	<line class="st1" x1="3652.7" y1="727.1" x2="3663.7" y2="647.6"/>
	<line class="st1" x1="3599.1" y1="377.5" x2="3609.2" y2="295.6"/>
</g>
<g id="Local_210">
	<polygon class="st1" points="3647.3,727.1 3618.3,545.1 3390.3,545.1 3412.3,727.1 	"/>
	<line class="st1" x1="3412.3" y1="727.1" x2="3423.7" y2="647.6"/>
	<line class="st1" x1="3390.3" y1="545.1" x2="3401.2" y2="464"/>
	<line class="st1" x1="3618.3" y1="545.1" x2="3630.4" y2="464"/>
	<line class="st1" x1="3647.3" y1="727.1" x2="3659.2" y2="647.6"/>
</g>
<g id="Local_211_00000058581650063972589810000003301669552410702238_">
	<polygon class="st1" points="3617.2,541.1 3592,377.5 3372.9,377.5 3389.6,541.1 	"/>
	<line class="st1" x1="3617.2" y1="541.1" x2="3629.8" y2="460.2"/>
	<line class="st1" x1="3389.6" y1="541.1" x2="3400.7" y2="460.2"/>
	<line class="st1" x1="3372.9" y1="377.5" x2="3380.5" y2="295.6"/>
	<line class="st1" x1="3592" y1="377.5" x2="3604.1" y2="295.6"/>
</g>
<g id="Local_212_00000028312319276172317020000001020232583780093325_">
	<polygon class="st1" points="3274.7,545.1 3294.6,727.1 3062.3,727.1 3050.1,545.1 	"/>
	<line class="st1" x1="3274.7" y1="545.1" x2="3284.1" y2="464.4"/>
	<line class="st1" x1="3050.1" y1="545.1" x2="3056.8" y2="464.4"/>
	<line class="st1" x1="3294.6" y1="727.1" x2="3302.4" y2="647.6"/>
	<line class="st1" x1="3062.3" y1="727.1" x2="3068" y2="647.6"/>
</g>
<g id="Local_213_00000053537873370301434020000001401271178826897824_">
	<polygon class="st1" points="3094.3,454.3 3090.8,376.9 3367.7,377.2 3375.3,455.1 	"/>
	<line class="st1" x1="3367.7" y1="377.2" x2="3374.8" y2="295.6"/>
	<line class="st1" x1="3375.3" y1="455.1" x2="3384.2" y2="374.6"/>
	<line class="st1" x1="3094.3" y1="454.3" x2="3100.8" y2="374.6"/>
	<line class="st1" x1="3090.8" y1="376.9" x2="3094.6" y2="295.6"/>
</g>
<g id="Local_214_00000147926726377238798490000003398600786447489976_">
	<polygon class="st1" points="3085.8,377.1 2805.8,377.1 2808.8,545.1 3092.7,545.1 	"/>
	<line class="st1" x1="3092.7" y1="545.1" x2="3101.6" y2="460.2"/>
	<line class="st1" x1="3085.8" y1="377.1" x2="3088.6" y2="295.6"/>
	<line class="st1" x1="2805.8" y1="377.1" x2="2802.6" y2="295.6"/>
	<line class="st1" x1="2808.8" y1="545.1" x2="2807.4" y2="460.2"/>
</g>
<g id="Local_215_00000044880171837720015230000006014969831792193694_">
	<rect x="2656.3" y="648.1" class="st1" width="142.5" height="135.5"/>
	<line class="st1" x1="2797.4" y1="783.9" x2="2800.4" y2="703.1"/>
	<line class="st1" x1="2656.3" y1="783.6" x2="2656.3" y2="702.9"/>
	<line class="st1" x1="2656.3" y1="648.1" x2="2656.3" y2="568.2"/>
	<line class="st1" x1="2798.8" y1="648.1" x2="2796.9" y2="568.2"/>
</g>
<g id="Local_216_00000183948873262392164050000007731453905905047483_">
	<rect x="2507.8" y="648.1" class="st1" width="141" height="135.5"/>
	<line class="st1" x1="2648.8" y1="783.6" x2="2650.3" y2="703.1"/>
	<line class="st1" x1="2507.8" y1="783.6" x2="2507.8" y2="702.9"/>
	<line class="st1" x1="2507.8" y1="648.1" x2="2507.8" y2="568.2"/>
	<line class="st1" x1="2648.8" y1="648.1" x2="2649.6" y2="568.2"/>
</g>
<g id="Local_218">
	<polygon class="st1" points="1943.8,1148.7 1934.1,1245.1 1736.3,1245.1 1749.9,1148.7 	"/>
	<line class="st1" x1="1943.8" y1="1148.7" x2="1939.6" y2="1060.6"/>
	<line class="st1" x1="1934.1" y1="1245.1" x2="1927.8" y2="1145.1"/>
	<line class="st1" x1="1736.3" y1="1245.1" x2="1732.2" y2="1145.1"/>
	<line class="st1" x1="1749.9" y1="1148.7" x2="1741.4" y2="1060.6"/>
</g>
<g id="Local_219_00000116210364336911321850000003650835285343773088_">
	<polygon class="st1" points="1770.6,927.9 1114.7,927.9 1063.8,1166 1741.6,1166.1 	"/>
	<line class="st1" x1="1741.6" y1="1166.1" x2="1732.2" y2="1086.9"/>
	<line class="st1" x1="1770.6" y1="927.9" x2="1758.8" y2="846.1"/>
	<line class="st1" x1="1063.8" y1="1166" x2="1041.3" y2="1087.6"/>
	<line class="st1" x1="1114.7" y1="927.9" x2="1093.8" y2="846.1"/>
</g>
<g id="Local_220_00000053531244215773265620000002983427515145996932_">
	<polygon class="st1" points="1062.6,1171.7 1193.8,1171.7 1146.1,1427.2 1008,1427.2 	"/>
	<line class="st1" x1="1062.6" y1="1171.7" x2="1040.3" y2="1092.1"/>
	<line class="st1" x1="1193.8" y1="1171.7" x2="1177.1" y2="1092.1"/>
	<line class="st1" x1="1008" y1="1427.2" x2="985.1" y2="1346.1"/>
	<line class="st1" x1="1146.1" y1="1427.2" x2="1125.1" y2="1346.1"/>
</g>
<g id="Local_221_00000150824217503132335060000016279489043412580285_">
	<polygon class="st1" points="1200.3,1171.7 1153,1427.1 1301.6,1427.2 1349.8,1171.7 	"/>
	<line class="st1" x1="1200.3" y1="1171.7" x2="1184.6" y2="1092.1"/>
	<line class="st1" x1="1349.8" y1="1171.7" x2="1329.9" y2="1092.1"/>
	<line class="st1" x1="1301.6" y1="1427.2" x2="1285.3" y2="1346.1"/>
	<line class="st1" x1="1153" y1="1427.1" x2="1132.6" y2="1346.1"/>
</g>
<g id="Local_222_00000150793152695581570000000015303512555623610027_">
	<polygon class="st1" points="1307.6,1427.1 1355.8,1171.7 1498.3,1171.7 1459.3,1427.1 	"/>
	<line class="st1" x1="1307.6" y1="1427.1" x2="1293.6" y2="1346.1"/>
	<line class="st1" x1="1459.3" y1="1427.1" x2="1443.9" y2="1346.1"/>
	<line class="st1" x1="1355.8" y1="1171.7" x2="1337.4" y2="1092.1"/>
	<line class="st1" x1="1498.3" y1="1171.7" x2="1481.9" y2="1092.1"/>
</g>
<g id="Local_223_00000002353361070280184270000015776557646431952277_">
	<polygon class="st1" points="1504.8,1171.7 1466.3,1427.1 1587.4,1426.8 1591.6,1396.7 1706.8,1397.7 1739.5,1171.7 	"/>
	<line class="st1" x1="1504.8" y1="1171.7" x2="1488.9" y2="1092.1"/>
	<line class="st1" x1="1739.5" y1="1171.7" x2="1730.6" y2="1092.7"/>
	<line class="st1" x1="1706.8" y1="1397.7" x2="1703.6" y2="1321.9"/>
	<line class="st1" x1="1591.6" y1="1396.7" x2="1576.1" y2="1321.9"/>
	<line class="st1" x1="1587.4" y1="1426.8" x2="1572.1" y2="1346.1"/>
	<line class="st1" x1="1466.3" y1="1427.1" x2="1452.2" y2="1346.1"/>
</g>
<g id="Local_224_00000141435207182512623370000001812916490529371289_">
	<path class="st1" d="M792.5,2399.4l168.8-1l-91,468.6c-5.2,0.7-78.1,3.8-121.2-43.9c-39.3-43.5-32.3-85.2-31.2-99.1
		c6.9-32.8,13.8-65.7,20.7-98.5h6.4L792.5,2399.4z"/>
	<line class="st1" x1="738.5" y1="2625.5" x2="706.3" y2="2552.6"/>
	<line class="st1" x1="711.8" y1="2552.6" x2="744.9" y2="2625.5"/>
	<line class="st1" x1="792.5" y1="2399.4" x2="761.3" y2="2325.6"/>
	<line class="st1" x1="961.3" y1="2398.3" x2="933.8" y2="2325.6"/>
	<line class="st1" x1="870.3" y1="2866.9" x2="842.8" y2="2797.3"/>
</g>
<g id="Local_225_00000018229155289701155460000007915783298579403696_">
	<polygon class="st1" points="969.3,2398.3 900,2758 1076,2758 1138.3,2397.2 	"/>
	<line class="st1" x1="1076" y1="2758" x2="1050.3" y2="2685.9"/>
	<line class="st1" x1="969.3" y1="2398.3" x2="940.8" y2="2325.6"/>
	<line class="st1" x1="1138.3" y1="2397.2" x2="1113.3" y2="2325.6"/>
	<line class="st1" x1="900" y1="2758" x2="870.3" y2="2686.1"/>
</g>
<g id="Local_226_00000134935297334383199490000011753394487584377988_">
	<polygon class="st1" points="1145.8,2397.2 1081.8,2758.2 1253.3,2758 1308.3,2396.2 	"/>
	<line class="st1" x1="1081.8" y1="2758.2" x2="1057.3" y2="2686.1"/>
	<line class="st1" x1="1145.8" y1="2397.2" x2="1120.8" y2="2325.6"/>
	<line class="st1" x1="1308.3" y1="2396.2" x2="1283.8" y2="2325.6"/>
	<line class="st1" x1="1253.3" y1="2758" x2="1227.8" y2="2685.8"/>
</g>
<g id="Local_227_00000022540270463433542580000015502976261229210501_">
	<polygon class="st1" points="1260.3,2758 1314.8,2396.1 1475.3,2395.1 1427.3,2758.4 	"/>
	<line class="st1" x1="1260.3" y1="2758" x2="1236.3" y2="2685.8"/>
	<line class="st1" x1="1427.3" y1="2758.4" x2="1404.8" y2="2685.7"/>
	<line class="st1" x1="1475.3" y1="2395.1" x2="1454.8" y2="2325.6"/>
	<line class="st1" x1="1314.8" y1="2396.1" x2="1292.3" y2="2325.6"/>
</g>
<g id="Local_228_00000045583941362497704710000012472490118768149124_">
	<polygon class="st1" points="1481.8,2395.1 1433.3,2758.4 1601.8,2758.2 1644.8,2394.1 	"/>
	<line class="st1" x1="1601.8" y1="2758.2" x2="1583.3" y2="2685.7"/>
	<line class="st1" x1="1433.3" y1="2758.4" x2="1413.3" y2="2685.7"/>
	<line class="st1" x1="1481.8" y1="2395.1" x2="1462.8" y2="2325.6"/>
	<line class="st1" x1="1644.8" y1="2394.1" x2="1625.3" y2="2325.6"/>
</g>
<g id="Local_229_00000021816012533193833080000009210917326527526554_">
	<polygon class="st1" points="1610.2,2758 1652.2,2394.1 1811.6,2393 1775.6,2758 	"/>
	<line class="st1" x1="1610.2" y1="2758" x2="1592.3" y2="2685.7"/>
	<line class="st1" x1="1775.6" y1="2758" x2="1762.3" y2="2685.7"/>
	<line class="st1" x1="1811.6" y1="2393" x2="1796.3" y2="2325.6"/>
	<line class="st1" x1="1652.2" y1="2394.1" x2="1633.3" y2="2325.6"/>
</g>
<g id="Local_230_00000127763259558014025360000015025917477396162470_">
	<polygon class="st1" points="1781.8,2758.5 1817.6,2393 2000.5,2390.9 1974.1,2758.6 	"/>
	<line class="st1" x1="1781.8" y1="2758.5" x2="1769.3" y2="2685.7"/>
	<line class="st1" x1="1974.1" y1="2758.6" x2="1963.3" y2="2686.1"/>
	<line class="st1" x1="2000.5" y1="2390.9" x2="1991.1" y2="2325.6"/>
	<line class="st1" x1="1817.6" y1="2393" x2="1803.8" y2="2325.6"/>
</g>
<g id="Local_231_00000171698733692971677700000007873954049810224274_">
	<polygon class="st1" points="2129.8,2400.4 2164.6,2399.7 2174.4,2164.9 2438.6,2164.9 2423.8,2880.6 2103.2,2880.6 	"/>
	<path class="st1" d="M2146.3,2516.7"/>
	<line class="st1" x1="2103.2" y1="2880.6" x2="2094.3" y2="2801.9"/>
	<line class="st1" x1="2423.8" y1="2880.6" x2="2425.4" y2="2801.9"/>
	<line class="st1" x1="2129.8" y1="2400.4" x2="2120.1" y2="2327.4"/>
	<line class="st1" x1="2164.6" y1="2399.7" x2="2156.8" y2="2327.4"/>
	<line class="st1" x1="2174.4" y1="2164.9" x2="2169.8" y2="2088.6"/>
	<line class="st1" x1="2438.6" y1="2164.9" x2="2438.6" y2="2088.6"/>
</g>
<g id="Local_232_00000138533885966191840210000009527477436142947232_">
	<polygon class="st1" points="2157.7,2052.9 2623.7,2051 2623.7,1866.1 2168.1,1866.1 	"/>
	<line class="st1" x1="2157.7" y1="2052.9" x2="2147.7" y2="1978.8"/>
	<line class="st1" x1="2168.1" y1="1866.1" x2="2158.4" y2="1790.4"/>
	<line class="st1" x1="2623.7" y1="1866.1" x2="2623.7" y2="1790.4"/>
	<line class="st1" x1="2623.7" y1="2051" x2="2623.7" y2="1978.8"/>
</g>
<g id="Local_233_00000098903147921107741140000002218365445657075074_">
	<polygon class="st1" points="2182.5,1606.1 2435.3,1606.1 2434.1,1860.1 2168.4,1860.1 	"/>
	<line class="st1" x1="2168.4" y1="1860.1" x2="2158.7" y2="1784.7"/>
	<line class="st1" x1="2434.1" y1="1860.1" x2="2430.9" y2="1784.7"/>
	<line class="st1" x1="2182.5" y1="1606.1" x2="2173.3" y2="1527.1"/>
	<line class="st1" x1="2435.3" y1="1606.1" x2="2437.3" y2="1527.1"/>
</g>
<g id="Local_234_00000000223842714078133780000013678546075845708183_">
	<polygon class="st1" points="2442,1606.1 2706.3,1606.1 2709.7,1859.6 2440.7,1860.1 	"/>
	<line class="st1" x1="2442" y1="1606.1" x2="2444.1" y2="1527.1"/>
	<line class="st1" x1="2706.3" y1="1606.1" x2="2706.3" y2="1527.1"/>
	<line class="st1" x1="2709.7" y1="1859.6" x2="2709.7" y2="1784.6"/>
</g>
<g id="Local_235_00000142863835061995110980000005098583820292626331_">
	<polygon class="st1" points="2713.2,1606.1 2938.3,1606.1 2953,1859.6 2714.8,1859.6 	"/>
	<line class="st1" x1="2713.2" y1="1606.1" x2="2713.3" y2="1527.1"/>
	<line class="st1" x1="2938.3" y1="1606.1" x2="2940.8" y2="1527.1"/>
	<line class="st1" x1="2953" y1="1859.6" x2="2952.5" y2="1784.6"/>
	<line class="st1" x1="2714.8" y1="1859.6" x2="2716.3" y2="1784.6"/>
</g>
<g id="Local_236_00000032606719416210758010000017115404998231453857_">
	<polygon class="st1" points="3189.3,1606.1 3207.3,1859.6 2961.3,1859.6 2947,1606.1 	"/>
	<line class="st1" x1="2961.3" y1="1859.6" x2="2961.3" y2="1784.6"/>
	<line class="st1" x1="3207.3" y1="1859.6" x2="3216.9" y2="1784.7"/>
	<line class="st1" x1="3189.3" y1="1606.1" x2="3197.7" y2="1527.1"/>
	<line class="st1" x1="2947" y1="1606.1" x2="2949.2" y2="1527.1"/>
</g>
<g id="Local_237_00000020369591866147778880000009838402607353681062_">
	<polygon class="st1" points="3486.3,1606.1 3510.9,1859.8 3215.1,1859.8 3196.5,1606.1 	"/>
	<line class="st1" x1="3196.5" y1="1606.1" x2="3205.2" y2="1527.1"/>
	<line class="st1" x1="3486.3" y1="1606.1" x2="3500.4" y2="1527.1"/>
	<line class="st1" x1="3215.1" y1="1859.8" x2="3225.3" y2="1784.7"/>
	<line class="st1" x1="3510.9" y1="1859.8" x2="3528.6" y2="1784.1"/>
</g>
<g id="Local_238_00000009560213566422595350000018012687665311188366_">
	<polygon class="st1" points="3493.4,1606.1 3775.8,1606.1 3859,2165.6 3548.1,2165.6 	"/>
	<line class="st1" x1="3548.1" y1="2165.6" x2="3569.3" y2="2073.1"/>
	<line class="st1" x1="3859" y1="2165.6" x2="3875.7" y2="2073.1"/>
	<line class="st1" x1="3493.4" y1="1606.1" x2="3509.1" y2="1527.1"/>
	<line class="st1" x1="3775.8" y1="1606.1" x2="3793.8" y2="1527.1"/>
</g>
<g id="Local_239_00000009568397927444063420000011100468985920632711_">
	<polygon class="st1" points="3784.8,1606.1 4070.1,1606.1 4171.8,2165.6 3867.3,2165.6 	"/>
	<line class="st1" x1="3784.8" y1="1606.1" x2="3800.1" y2="1527.1"/>
	<line class="st1" x1="4070.1" y1="1606.1" x2="4086.4" y2="1527.1"/>
	<line class="st1" x1="3867.3" y1="2165.6" x2="3882.8" y2="2073.1"/>
	<line class="st1" x1="4171.8" y1="2165.6" x2="4190.8" y2="2073.1"/>
</g>
<g id="Local_240_00000129170613153454151590000011055441629997750962_">
	<polygon class="st1" points="4078.2,1606.1 4355.8,1606.1 4483.3,2165.6 4181.3,2165.6 	"/>
	<line class="st1" x1="4181.3" y1="2165.6" x2="4199.6" y2="2073.1"/>
	<line class="st1" x1="4483.3" y1="2165.6" x2="4503" y2="2073.1"/>
	<line class="st1" x1="4078.2" y1="1606.1" x2="4093.1" y2="1527.1"/>
	<line class="st1" x1="4355.8" y1="1606.1" x2="4380.1" y2="1527.1"/>
</g>
<g id="Local_241_00000113316590386911552380000007325517601295450805_">
	<polygon class="st1" points="4656.7,1606 4803.8,2165.5 4490,2165.6 4362.5,1606.1 	"/>
	<line class="st1" x1="4490" y1="2165.6" x2="4512.3" y2="2073.1"/>
	<line class="st1" x1="4803.8" y1="2165.5" x2="4838" y2="2073.1"/>
	<line class="st1" x1="4362.5" y1="1606.1" x2="4386.6" y2="1527.1"/>
	<line class="st1" x1="4656.7" y1="1606" x2="4687.3" y2="1527.1"/>
	<g>
	</g>
	<g>
	</g>
	<g>
	</g>
	<g>
	</g>
	<g>
	</g>
	<g>
	</g>
	<g>
	</g>
	<g>
	</g>
	<g>
	</g>
	<g>
	</g>
	<g>
	</g>
	<g>
	</g>
	<g>
	</g>
	<g>
	</g>
	<g>
	</g>
</g>
</svg>
