<?xml version="1.0" encoding="utf-8"?>
<!-- Generator: Adobe Illustrator 26.0.0, SVG Export Plug-In . SVG Version: 6.00 Build 0)  -->
<svg version="1.1" xmlns="http://www.w3.org/2000/svg" xmlns:xlink="http://www.w3.org/1999/xlink" x="0px" y="0px"
	 viewBox="0 0 4906.6 3194" style="enable-background:new 0 0 4906.6 3194;" xml:space="preserve">
<style type="text/css">
	.st0{fill:none;}
	.st1{fill:none;stroke:#000000;stroke-miterlimit:10;}
</style>
<g id="Imagen">
	
		<image style="overflow:visible;" width="7000" height="3937" id="Tercer_piso_00000137103239742569307830000010049004991658090121_" xlink:href="C:\Users\1\Desktop\BootCamp-DWFS\Practica SVG\assets\Img\planta tercer piso.png"  transform="matrix(0.9519 0 0 0.9141 -878.11 -202.8213)">
	</image>
</g>
<g id="Textos">
	<g>
		<rect x="3569.7" y="536.6" class="st0" width="804.5" height="247.5"/>
		<path d="M3703.4,618.1h-8.1v-32.7h12.8c4.3,0,7.5,1,9.6,3.1c2.2,2.1,3.2,4.9,3.2,8.4s-1.1,6.3-3.2,8.4c-2.2,2.1-5.4,3.1-9.6,3.1
			h-4.8V618.1z M3703.4,601h4.9c3,0,4.5-1.4,4.5-4.1c0-2.7-1.5-4-4.5-4h-4.9V601z"/>
		<path d="M3784,618.1h-23.6v-32.7h8.1v25.2h15.5V618.1z"/>
		<path d="M3851.6,618.1h-8.1v-9.3h-12.8v9.3h-7.9v-19c0-4.5,1.2-8,3.7-10.5c2.5-2.5,6-3.8,10.6-3.8c4.6,0,8.2,1.3,10.7,3.8
			s3.8,6,3.8,10.5V618.1z M3843.5,601.8v-2.7c0-4.6-2.1-6.9-6.4-6.9c-4.3,0-6.4,2.3-6.4,6.9v2.7H3843.5z"/>
		<path d="M3916.8,592.7l-15,17.9v0.1h15.5v7.5h-25.9v-7.2l15.1-17.9v-0.1h-14.3v-7.5h24.6V592.7z"/>
		<path d="M3985.6,589.6c3.3,3.2,4.9,7.3,4.9,12.2c0,4.9-1.6,9-4.9,12.2c-3.3,3.2-7.4,4.8-12.5,4.8s-9.2-1.6-12.5-4.8
			c-3.3-3.2-4.9-7.3-4.9-12.2c0-4.9,1.6-9,4.9-12.2c3.3-3.2,7.4-4.8,12.5-4.8S3982.4,586.4,3985.6,589.6z M3966.5,608.6
			c1.7,1.8,3.9,2.7,6.7,2.7c2.7,0,4.9-0.9,6.7-2.7c1.7-1.8,2.5-4.1,2.5-6.8c0-2.8-0.8-5-2.5-6.8c-1.7-1.8-3.9-2.7-6.7-2.7
			c-2.7,0-4.9,0.9-6.7,2.7c-1.7,1.8-2.5,4.1-2.5,6.8C3963.9,604.5,3964.8,606.8,3966.5,608.6z"/>
		<path d="M4054.1,618.1h-23.6v-32.7h8.1v25.2h15.5V618.1z"/>
		<path d="M4117.9,618.1h-24.2v-32.7h24.2v7.5h-16v5.4h13.1v6.5h-13.1v5.9h16V618.1z"/>
		<path d="M4173.6,618.1h-8.1v-25.2h-8.9v-7.5h25.9v7.5h-8.9V618.1z"/>
		<path d="M4249.2,618.1h-8.1v-9.3h-12.8v9.3h-7.9v-19c0-4.5,1.2-8,3.7-10.5c2.5-2.5,6-3.8,10.6-3.8c4.6,0,8.2,1.3,10.7,3.8
			s3.8,6,3.8,10.5V618.1z M4241.1,601.8v-2.7c0-4.6-2.1-6.9-6.4-6.9c-4.3,0-6.4,2.3-6.4,6.9v2.7H4241.1z"/>
		<path d="M3805.7,678.1h-8.1v-9.3h-12.8v9.3h-7.9v-19c0-4.5,1.2-8,3.7-10.5c2.5-2.5,6-3.8,10.6-3.8c4.6,0,8.2,1.3,10.7,3.8
			s3.8,6,3.8,10.5V678.1z M3797.6,661.8v-2.7c0-4.6-2.1-6.9-6.4-6.9c-4.3,0-6.4,2.3-6.4,6.9v2.7H3797.6z"/>
		<path d="M3870.2,678.1h-23.6v-32.7h8.1v25.2h15.4V678.1z"/>
		<path d="M3986.1,678.1h-8.1v-9.3h-12.8v9.3h-7.9v-19c0-4.5,1.2-8,3.7-10.5c2.5-2.5,6-3.8,10.6-3.8c4.6,0,8.2,1.3,10.7,3.8
			s3.8,6,3.8,10.5V678.1z M3978,661.8v-2.7c0-4.6-2.1-6.9-6.4-6.9c-4.3,0-6.4,2.3-6.4,6.9v2.7H3978z"/>
		<path d="M4035.2,678.1h-8.1v-32.7h8.1V678.1z"/>
		<path d="M4103.8,678.1h-9.6l-5.8-10.2h-3.5v10.2h-8.1v-32.7h13.2c4.2,0,7.3,1,9.4,3.1c2.1,2,3.1,4.8,3.1,8.1
			c0,2.4-0.5,4.4-1.5,6.2s-2.5,3.1-4.6,3.9v0.1L4103.8,678.1z M4085,660.4h5.2c2.8,0,4.2-1.2,4.2-3.8c0-2.5-1.4-3.7-4.2-3.7h-5.2
			V660.4z"/>
		<path d="M4167.2,678.1H4143v-32.7h24.2v7.5h-16v5.4h13.1v6.5h-13.1v5.9h16V678.1z"/>
		<path d="M3861.2,738.1h-23.6v-32.7h8.1v25.2h15.4V738.1z"/>
		<path d="M3908.9,738.1h-8.1v-32.7h8.1V738.1z"/>
		<path d="M3967.5,738.1h-16.9v-32.7h15.6c3.1,0,5.5,0.8,7.1,2.4c1.7,1.6,2.5,3.6,2.5,6.2c0,3.3-1.3,5.6-3.9,7.1v0.1
			c1.7,0.6,3.1,1.6,4,3c0.9,1.4,1.4,3,1.4,5c0,2.7-0.8,4.8-2.5,6.5S3970.7,738.1,3967.5,738.1z M3964.8,712.9h-6.1v5.4h6.1
			c2,0,2.9-0.9,2.9-2.6C3967.8,713.8,3966.8,712.9,3964.8,712.9z M3965.8,724.8h-7.1v5.9h7.1c2.1,0,3.2-1,3.2-2.9
			c0-0.8-0.3-1.5-0.8-2.1C3967.6,725.1,3966.8,724.8,3965.8,724.8z"/>
		<path d="M4043.9,738.1h-9.6l-5.8-10.2h-3.5v10.2h-8.1v-32.7h13.2c4.2,0,7.3,1,9.4,3.1c2.1,2,3.1,4.8,3.1,8.1
			c0,2.4-0.5,4.4-1.5,6.2s-2.5,3.1-4.6,3.9v0.1L4043.9,738.1z M4025,720.4h5.2c2.8,0,4.2-1.2,4.2-3.8c0-2.5-1.4-3.7-4.2-3.7h-5.2
			V720.4z"/>
		<path d="M4107.2,738.1h-24.2v-32.7h24.2v7.5h-16v5.4h13.1v6.5h-13.1v5.9h16V738.1z"/>
	</g>
	<g>
		<rect x="2605.7" y="224.5" class="st0" width="873.2" height="247.5"/>
		<path d="M2652.8,344.2h-8.9c-1.7-2.7-4.2-4-7.7-4c-2.7,0-4.9,0.9-6.6,2.7s-2.5,4.1-2.5,6.8c0,2.8,0.8,5,2.5,6.8
			c1.7,1.8,3.9,2.7,6.6,2.7c4.2,0,7-1.6,8.5-4.8v-0.1h-10.5v-6.5h19.4v3.6c-0.4,4.5-2.2,8.2-5.4,11s-7.2,4.3-12,4.3
			c-5.1,0-9.2-1.6-12.5-4.8c-3.3-3.2-4.9-7.3-4.9-12.2c0-4.9,1.6-9,4.9-12.2c3.3-3.2,7.4-4.8,12.5-4.8c4,0,7.5,1,10.5,3.1
			C2649.7,337.9,2651.7,340.7,2652.8,344.2z"/>
		<path d="M2736.3,366h-8.1v-9.3h-12.8v9.3h-7.9v-19c0-4.5,1.2-8,3.7-10.5c2.5-2.5,6-3.8,10.6-3.8c4.6,0,8.2,1.3,10.7,3.8
			s3.8,6,3.8,10.5V366z M2728.2,349.7V347c0-4.6-2.1-6.9-6.4-6.9s-6.4,2.3-6.4,6.9v2.7H2728.2z"/>
		<path d="M2814.6,343.1h-7.6c0-1-0.4-1.8-1-2.5c-0.7-0.6-1.7-0.9-3-0.9c-1.4,0-2.4,0.3-3,1c-0.7,0.7-1,1.5-1,2.5
			c0,0.8,0.3,1.4,0.9,1.8c0.6,0.4,1.4,0.8,2.3,0.9c1,0.2,2,0.4,3.2,0.6c1.1,0.2,2.3,0.5,3.5,0.9c1.2,0.4,2.2,0.9,3.2,1.5
			c1,0.6,1.7,1.6,2.3,2.8c0.6,1.2,0.9,2.7,0.9,4.5c0,3.2-1.1,5.8-3.4,7.7c-2.2,1.9-5.2,2.9-8.9,2.9c-3.7,0-6.6-0.9-8.9-2.8
			s-3.4-4.4-3.5-7.5h7.9c0,2.2,1.5,3.3,4.4,3.3c2.9,0,4.4-1.1,4.4-3.4c0-0.7-0.3-1.3-0.9-1.8s-1.4-0.7-2.3-0.9
			c-0.9-0.2-2-0.4-3.1-0.6c-1.2-0.2-2.3-0.5-3.4-0.9c-1.2-0.4-2.2-0.9-3.1-1.5c-0.9-0.6-1.7-1.6-2.3-2.9c-0.6-1.3-0.9-2.8-0.9-4.5
			c0-3.1,1.1-5.7,3.2-7.6c2.2-2,5-3,8.5-3c3.4,0,6.2,1,8.3,2.9C2813.4,337.5,2814.5,340,2814.6,343.1z"/>
		<path d="M2884,366h-8.1v-25.2h-8.9v-7.5h26v7.5h-9V366z"/>
		<path d="M2974.6,366h-9.6l-5.8-10.2h-3.5V366h-8.1v-32.7h13.2c4.2,0,7.3,1,9.4,3.1c2.1,2,3.1,4.8,3.1,8.1c0,2.4-0.5,4.4-1.5,6.2
			c-1,1.8-2.5,3.1-4.6,3.9v0.1L2974.6,366z M2955.7,348.3h5.2c2.8,0,4.2-1.2,4.2-3.8c0-2.5-1.4-3.7-4.2-3.7h-5.2V348.3z"/>
		<path d="M3056.8,337.5c3.3,3.2,4.9,7.3,4.9,12.2c0,4.9-1.6,9-4.9,12.2c-3.3,3.2-7.4,4.8-12.5,4.8s-9.2-1.6-12.5-4.8
			c-3.3-3.2-4.9-7.3-4.9-12.2c0-4.9,1.6-9,4.9-12.2c3.3-3.2,7.4-4.8,12.5-4.8S3053.6,334.3,3056.8,337.5z M3037.7,356.5
			c1.7,1.8,3.9,2.7,6.6,2.7s5-0.9,6.7-2.7c1.7-1.8,2.5-4.1,2.5-6.8c0-2.8-0.8-5-2.5-6.8s-3.9-2.7-6.7-2.7s-4.9,0.9-6.6,2.7
			s-2.5,4.1-2.5,6.8C3035.1,352.5,3036,354.7,3037.7,356.5z"/>
		<path d="M3133.6,366h-16.9v-32.7h15.6c3.1,0,5.5,0.8,7.1,2.4c1.6,1.6,2.5,3.6,2.5,6.2c0,3.3-1.3,5.6-4,7.1v0.1
			c1.7,0.6,3.1,1.6,4,3c1,1.4,1.4,3,1.4,5c0,2.7-0.8,4.8-2.5,6.5S3136.8,366,3133.6,366z M3131,340.8h-6.1v5.4h6.1c2,0,3-0.9,3-2.6
			C3133.9,341.7,3132.9,340.8,3131,340.8z M3132,352.7h-7.1v5.9h7.1c2.1,0,3.2-1,3.2-2.9c0-0.8-0.3-1.5-0.8-2.1
			C3133.7,353,3133,352.7,3132,352.7z"/>
		<path d="M3226.1,366h-8.1v-9.3h-12.8v9.3h-7.9v-19c0-4.5,1.2-8,3.7-10.5c2.5-2.5,6-3.8,10.6-3.8c4.6,0,8.2,1.3,10.7,3.8
			s3.8,6,3.8,10.5V366z M3218,349.7V347c0-4.6-2.1-6.9-6.4-6.9s-6.4,2.3-6.4,6.9v2.7H3218z"/>
		<path d="M3309,366h-9.6l-5.8-10.2h-3.5V366h-8.1v-32.7h13.2c4.2,0,7.3,1,9.4,3.1c2.1,2,3.1,4.8,3.1,8.1c0,2.4-0.5,4.4-1.5,6.2
			c-1,1.8-2.5,3.1-4.6,3.9v0.1L3309,366z M3290.1,348.3h5.2c2.8,0,4.2-1.2,4.2-3.8c0-2.5-1.4-3.7-4.2-3.7h-5.2V348.3z"/>
		<path d="M3387.3,366h-24.2v-32.7h24.2v7.5h-16v5.4h13.1v6.5h-13.1v5.9h16V366z"/>
		<path d="M3465.3,343.1h-7.6c0-1-0.4-1.8-1-2.5c-0.7-0.6-1.7-0.9-3-0.9c-1.4,0-2.4,0.3-3,1c-0.7,0.7-1,1.5-1,2.5
			c0,0.8,0.3,1.4,0.9,1.8c0.6,0.4,1.4,0.8,2.3,0.9c1,0.2,2,0.4,3.2,0.6c1.1,0.2,2.3,0.5,3.5,0.9c1.2,0.4,2.2,0.9,3.2,1.5
			c1,0.6,1.7,1.6,2.3,2.8c0.6,1.2,0.9,2.7,0.9,4.5c0,3.2-1.1,5.8-3.4,7.7c-2.2,1.9-5.2,2.9-8.9,2.9c-3.7,0-6.6-0.9-8.9-2.8
			s-3.4-4.4-3.5-7.5h7.9c0,2.2,1.5,3.3,4.4,3.3c2.9,0,4.4-1.1,4.4-3.4c0-0.7-0.3-1.3-0.9-1.8s-1.4-0.7-2.3-0.9
			c-0.9-0.2-2-0.4-3.1-0.6c-1.2-0.2-2.3-0.5-3.4-0.9c-1.2-0.4-2.2-0.9-3.1-1.5c-0.9-0.6-1.7-1.6-2.3-2.9c-0.6-1.3-0.9-2.8-0.9-4.5
			c0-3.1,1.1-5.7,3.2-7.6c2.2-2,5-3,8.5-3c3.4,0,6.2,1,8.3,2.9C3464.1,337.5,3465.2,340,3465.3,343.1z"/>
	</g>
	<g>
		<rect x="2605.7" y="224.5" class="st0" width="873.2" height="247.5"/>
		<path d="M2652.8,344.2h-8.9c-1.7-2.7-4.2-4-7.7-4c-2.7,0-4.9,0.9-6.6,2.7s-2.5,4.1-2.5,6.8c0,2.8,0.8,5,2.5,6.8
			c1.7,1.8,3.9,2.7,6.6,2.7c4.2,0,7-1.6,8.5-4.8v-0.1h-10.5v-6.5h19.4v3.6c-0.4,4.5-2.2,8.2-5.4,11s-7.2,4.3-12,4.3
			c-5.1,0-9.2-1.6-12.5-4.8c-3.3-3.2-4.9-7.3-4.9-12.2c0-4.9,1.6-9,4.9-12.2c3.3-3.2,7.4-4.8,12.5-4.8c4,0,7.5,1,10.5,3.1
			C2649.7,337.9,2651.7,340.7,2652.8,344.2z"/>
		<path d="M2736.3,366h-8.1v-9.3h-12.8v9.3h-7.9v-19c0-4.5,1.2-8,3.7-10.5c2.5-2.5,6-3.8,10.6-3.8c4.6,0,8.2,1.3,10.7,3.8
			s3.8,6,3.8,10.5V366z M2728.2,349.7V347c0-4.6-2.1-6.9-6.4-6.9s-6.4,2.3-6.4,6.9v2.7H2728.2z"/>
		<path d="M2814.6,343.1h-7.6c0-1-0.4-1.8-1-2.5c-0.7-0.6-1.7-0.9-3-0.9c-1.4,0-2.4,0.3-3,1c-0.7,0.7-1,1.5-1,2.5
			c0,0.8,0.3,1.4,0.9,1.8c0.6,0.4,1.4,0.8,2.3,0.9c1,0.2,2,0.4,3.2,0.6c1.1,0.2,2.3,0.5,3.5,0.9c1.2,0.4,2.2,0.9,3.2,1.5
			c1,0.6,1.7,1.6,2.3,2.8c0.6,1.2,0.9,2.7,0.9,4.5c0,3.2-1.1,5.8-3.4,7.7c-2.2,1.9-5.2,2.9-8.9,2.9c-3.7,0-6.6-0.9-8.9-2.8
			s-3.4-4.4-3.5-7.5h7.9c0,2.2,1.5,3.3,4.4,3.3c2.9,0,4.4-1.1,4.4-3.4c0-0.7-0.3-1.3-0.9-1.8s-1.4-0.7-2.3-0.9
			c-0.9-0.2-2-0.4-3.1-0.6c-1.2-0.2-2.3-0.5-3.4-0.9c-1.2-0.4-2.2-0.9-3.1-1.5c-0.9-0.6-1.7-1.6-2.3-2.9c-0.6-1.3-0.9-2.8-0.9-4.5
			c0-3.1,1.1-5.7,3.2-7.6c2.2-2,5-3,8.5-3c3.4,0,6.2,1,8.3,2.9C2813.4,337.5,2814.5,340,2814.6,343.1z"/>
		<path d="M2884,366h-8.1v-25.2h-8.9v-7.5h26v7.5h-9V366z"/>
		<path d="M2974.6,366h-9.6l-5.8-10.2h-3.5V366h-8.1v-32.7h13.2c4.2,0,7.3,1,9.4,3.1c2.1,2,3.1,4.8,3.1,8.1c0,2.4-0.5,4.4-1.5,6.2
			c-1,1.8-2.5,3.1-4.6,3.9v0.1L2974.6,366z M2955.7,348.3h5.2c2.8,0,4.2-1.2,4.2-3.8c0-2.5-1.4-3.7-4.2-3.7h-5.2V348.3z"/>
		<path d="M3056.8,337.5c3.3,3.2,4.9,7.3,4.9,12.2c0,4.9-1.6,9-4.9,12.2c-3.3,3.2-7.4,4.8-12.5,4.8s-9.2-1.6-12.5-4.8
			c-3.3-3.2-4.9-7.3-4.9-12.2c0-4.9,1.6-9,4.9-12.2c3.3-3.2,7.4-4.8,12.5-4.8S3053.6,334.3,3056.8,337.5z M3037.7,356.5
			c1.7,1.8,3.9,2.7,6.6,2.7s5-0.9,6.7-2.7c1.7-1.8,2.5-4.1,2.5-6.8c0-2.8-0.8-5-2.5-6.8s-3.9-2.7-6.7-2.7s-4.9,0.9-6.6,2.7
			s-2.5,4.1-2.5,6.8C3035.1,352.5,3036,354.7,3037.7,356.5z"/>
		<path d="M3133.6,366h-16.9v-32.7h15.6c3.1,0,5.5,0.8,7.1,2.4c1.6,1.6,2.5,3.6,2.5,6.2c0,3.3-1.3,5.6-4,7.1v0.1
			c1.7,0.6,3.1,1.6,4,3c1,1.4,1.4,3,1.4,5c0,2.7-0.8,4.8-2.5,6.5S3136.8,366,3133.6,366z M3131,340.8h-6.1v5.4h6.1c2,0,3-0.9,3-2.6
			C3133.9,341.7,3132.9,340.8,3131,340.8z M3132,352.7h-7.1v5.9h7.1c2.1,0,3.2-1,3.2-2.9c0-0.8-0.3-1.5-0.8-2.1
			C3133.7,353,3133,352.7,3132,352.7z"/>
		<path d="M3226.1,366h-8.1v-9.3h-12.8v9.3h-7.9v-19c0-4.5,1.2-8,3.7-10.5c2.5-2.5,6-3.8,10.6-3.8c4.6,0,8.2,1.3,10.7,3.8
			s3.8,6,3.8,10.5V366z M3218,349.7V347c0-4.6-2.1-6.9-6.4-6.9s-6.4,2.3-6.4,6.9v2.7H3218z"/>
		<path d="M3309,366h-9.6l-5.8-10.2h-3.5V366h-8.1v-32.7h13.2c4.2,0,7.3,1,9.4,3.1c2.1,2,3.1,4.8,3.1,8.1c0,2.4-0.5,4.4-1.5,6.2
			c-1,1.8-2.5,3.1-4.6,3.9v0.1L3309,366z M3290.1,348.3h5.2c2.8,0,4.2-1.2,4.2-3.8c0-2.5-1.4-3.7-4.2-3.7h-5.2V348.3z"/>
		<path d="M3387.3,366h-24.2v-32.7h24.2v7.5h-16v5.4h13.1v6.5h-13.1v5.9h16V366z"/>
		<path d="M3465.3,343.1h-7.6c0-1-0.4-1.8-1-2.5c-0.7-0.6-1.7-0.9-3-0.9c-1.4,0-2.4,0.3-3,1c-0.7,0.7-1,1.5-1,2.5
			c0,0.8,0.3,1.4,0.9,1.8c0.6,0.4,1.4,0.8,2.3,0.9c1,0.2,2,0.4,3.2,0.6c1.1,0.2,2.3,0.5,3.5,0.9c1.2,0.4,2.2,0.9,3.2,1.5
			c1,0.6,1.7,1.6,2.3,2.8c0.6,1.2,0.9,2.7,0.9,4.5c0,3.2-1.1,5.8-3.4,7.7c-2.2,1.9-5.2,2.9-8.9,2.9c-3.7,0-6.6-0.9-8.9-2.8
			s-3.4-4.4-3.5-7.5h7.9c0,2.2,1.5,3.3,4.4,3.3c2.9,0,4.4-1.1,4.4-3.4c0-0.7-0.3-1.3-0.9-1.8s-1.4-0.7-2.3-0.9
			c-0.9-0.2-2-0.4-3.1-0.6c-1.2-0.2-2.3-0.5-3.4-0.9c-1.2-0.4-2.2-0.9-3.1-1.5c-0.9-0.6-1.7-1.6-2.3-2.9c-0.6-1.3-0.9-2.8-0.9-4.5
			c0-3.1,1.1-5.7,3.2-7.6c2.2-2,5-3,8.5-3c3.4,0,6.2,1,8.3,2.9C3464.1,337.5,3465.2,340,3465.3,343.1z"/>
	</g>
	<g>
		<rect x="969.3" y="871" class="st0" width="970" height="247.5"/>
		<path d="M991.3,1023.1h-13v-52.3h20.6c6.8,0,12,1.7,15.4,5c3.4,3.3,5.2,7.8,5.2,13.4s-1.7,10.1-5.2,13.4c-3.4,3.4-8.6,5-15.4,5
			h-7.6V1023.1z M991.3,995.7h7.8c4.8,0,7.2-2.2,7.2-6.5c0-4.3-2.4-6.4-7.2-6.4h-7.8V995.7z"/>
		<path d="M1144.1,1023.1h-37.7v-52.3h13v40.3h24.7V1023.1z"/>
		<path d="M1276.4,1023.1h-13v-14.9h-20.5v14.9h-12.6v-30.4c0-7.2,2-12.8,6-16.9c4-4.1,9.6-6.1,17-6.1c7.4,0,13.1,2,17.1,6.1
			c4,4.1,6,9.7,6,16.9V1023.1z M1263.4,997v-4.3c0-7.3-3.4-11-10.2-11c-6.8,0-10.2,3.7-10.2,11v4.3H1263.4z"/>
		<path d="M1389.1,1023.1h-13v-21.7l-19.1-30.6h15.3l10.2,18.2l0.1,0l10.3-18.2h15l-18.8,30.2V1023.1z"/>
		<path d="M1531.6,1023.1h-37.7v-52.3h13v40.3h24.7V1023.1z"/>
		<path d="M1663.8,1023.1h-13v-14.9h-20.5v14.9h-12.6v-30.4c0-7.2,2-12.8,6-16.9c4-4.1,9.6-6.1,17-6.1c7.4,0,13.1,2,17.1,6.1
			c4,4.1,6,9.7,6,16.9V1023.1z M1650.9,997v-4.3c0-7.3-3.4-11-10.2-11c-6.8,0-10.2,3.7-10.2,11v4.3H1650.9z"/>
		<path d="M1796.9,1023.1h-13v-31.4c0-6.7-3.1-10-9.4-10s-9.4,3.3-9.4,10v31.4h-13v-31.4c0-6.8,1.9-12.2,5.8-16.1
			c3.9-3.9,9.4-5.9,16.6-5.9c7.1,0,12.7,2,16.6,5.9c3.9,3.9,5.8,9.3,5.8,16.1V1023.1z"/>
		<path d="M1904.9,1023.1h-18.5v-52.3h18.5c9,0,15.9,2.3,20.8,7c4.8,4.7,7.2,11.1,7.2,19.1c0,8.1-2.4,14.4-7.2,19.1
			C1920.9,1020.8,1913.9,1023.1,1904.9,1023.1z M1899.4,1011.1h5.5c9.9,0,14.9-4.7,14.9-14.2s-5-14.2-14.9-14.2h-5.5V1011.1z"/>
	</g>
	<g>
		<rect x="871.1" y="1683.8" class="st0" width="852.2" height="247.5"/>
		<path d="M1033.3,1761.9h-12c-0.9-2.4-2.4-4.3-4.5-5.7c-2.1-1.4-4.5-2.1-7.3-2.1c-3.8,0-6.9,1.2-9.3,3.7c-2.4,2.5-3.6,5.7-3.6,9.6
			c0,3.9,1.2,7.1,3.6,9.6c2.4,2.5,5.5,3.7,9.3,3.7c2.8,0,5.2-0.7,7.3-2.1c2.1-1.4,3.6-3.3,4.5-5.7h12c-1.2,5.5-3.9,9.9-8.2,13.2
			c-4.3,3.4-9.5,5-15.6,5c-7.1,0-12.9-2.2-17.5-6.7c-4.6-4.5-6.9-10.2-6.9-17.1c0-6.9,2.3-12.6,6.9-17.1c4.6-4.5,10.4-6.7,17.5-6.7
			c6.1,0,11.3,1.7,15.6,5C1029.4,1752.1,1032.2,1756.5,1033.3,1761.9z"/>
		<path d="M1128.2,1790.3h-11.3v-13H1099v13h-11.1v-26.6c0-6.3,1.7-11.2,5.2-14.8c3.5-3.5,8.4-5.3,14.9-5.3c6.5,0,11.5,1.8,15,5.3
			c3.5,3.5,5.2,8.5,5.2,14.8V1790.3z M1116.9,1767.5v-3.8c0-6.4-3-9.6-9-9.6c-6,0-9,3.2-9,9.6v3.8H1116.9z"/>
		<path d="M1223.7,1790.3h-11.3v-27.4c0-5.8-2.8-8.8-8.3-8.8c-5.5,0-8.3,2.9-8.3,8.8v27.4h-11.3v-27.4c0-6,1.7-10.7,5.1-14.1
			c3.4-3.4,8.2-5.1,14.5-5.1c6.3,0,11.1,1.7,14.5,5.1c3.4,3.4,5.1,8.1,5.1,14.1V1790.3z"/>
		<path d="M1326.9,1761.9h-12c-0.9-2.4-2.4-4.3-4.5-5.7c-2.1-1.4-4.5-2.1-7.3-2.1c-3.8,0-6.9,1.2-9.3,3.7c-2.4,2.5-3.6,5.7-3.6,9.6
			c0,3.9,1.2,7.1,3.6,9.6c2.4,2.5,5.5,3.7,9.3,3.7c2.8,0,5.2-0.7,7.3-2.1c2.1-1.4,3.6-3.3,4.5-5.7h12c-1.2,5.5-3.9,9.9-8.2,13.2
			c-4.3,3.4-9.5,5-15.6,5c-7.1,0-12.9-2.2-17.5-6.7c-4.6-4.5-6.9-10.2-6.9-17.1c0-6.9,2.3-12.6,6.9-17.1c4.6-4.5,10.4-6.7,17.5-6.7
			c6.1,0,11.3,1.7,15.6,5C1323,1752.1,1325.7,1756.5,1326.9,1761.9z"/>
		<path d="M1422.4,1790.3h-11.3v-18H1394v18h-11.3v-45.8h11.3v17.3h17.1v-17.3h11.3V1790.3z"/>
		<path d="M1520,1790.3h-11.3v-13h-17.9v13h-11.1v-26.6c0-6.3,1.7-11.2,5.2-14.8c3.5-3.5,8.4-5.3,14.9-5.3c6.5,0,11.5,1.8,15,5.3
			c3.5,3.5,5.2,8.5,5.2,14.8V1790.3z M1508.7,1767.5v-3.8c0-6.4-3-9.6-9-9.6c-6,0-9,3.2-9,9.6v3.8H1508.7z"/>
		<path d="M1608.6,1758.3H1598c0-1.4-0.5-2.5-1.5-3.4c-0.9-0.9-2.3-1.3-4.2-1.3c-1.9,0-3.3,0.5-4.3,1.4c-0.9,0.9-1.4,2.1-1.4,3.4
			c0,1.1,0.4,1.9,1.2,2.5c0.8,0.6,1.9,1.1,3.2,1.3c1.3,0.2,2.8,0.5,4.4,0.8c1.6,0.3,3.2,0.7,4.8,1.2c1.6,0.5,3.1,1.2,4.4,2.1
			c1.3,0.9,2.4,2.2,3.3,3.9c0.8,1.7,1.3,3.8,1.3,6.2c0,4.5-1.6,8.1-4.7,10.8c-3.1,2.7-7.3,4-12.5,4c-5.1,0-9.3-1.3-12.4-3.9
			c-3.1-2.6-4.7-6.1-4.8-10.5h11.1c0,3.1,2.1,4.7,6.2,4.7c4.1,0,6.2-1.6,6.2-4.7c0-1-0.4-1.9-1.3-2.5c-0.8-0.6-1.9-1-3.2-1.3
			c-1.3-0.2-2.8-0.5-4.4-0.8c-1.6-0.3-3.2-0.7-4.8-1.3c-1.6-0.5-3.1-1.2-4.4-2.1s-2.4-2.2-3.2-4s-1.3-3.9-1.3-6.4
			c0-4.4,1.5-8,4.5-10.7c3-2.8,7-4.1,11.9-4.1c4.8,0,8.7,1.3,11.7,4S1608.5,1753.9,1608.6,1758.3z"/>
		<path d="M919.5,1842.3h-10.6c0-1.4-0.5-2.5-1.5-3.4c-0.9-0.9-2.3-1.3-4.2-1.3c-1.9,0-3.3,0.5-4.3,1.4c-0.9,0.9-1.4,2.1-1.4,3.4
			c0,1.1,0.4,1.9,1.2,2.5c0.8,0.6,1.9,1.1,3.2,1.3c1.3,0.2,2.8,0.5,4.4,0.8c1.6,0.3,3.2,0.7,4.8,1.2c1.6,0.5,3.1,1.2,4.4,2.1
			c1.3,0.9,2.4,2.2,3.3,3.9c0.8,1.7,1.3,3.8,1.3,6.2c0,4.5-1.6,8.1-4.7,10.8c-3.1,2.7-7.3,4-12.5,4c-5.1,0-9.3-1.3-12.4-3.9
			c-3.1-2.6-4.7-6.1-4.8-10.5h11.1c0,3.1,2.1,4.7,6.2,4.7c4.1,0,6.2-1.6,6.2-4.7c0-1-0.4-1.9-1.3-2.5c-0.8-0.6-1.9-1-3.2-1.3
			c-1.3-0.2-2.8-0.5-4.4-0.8c-1.6-0.3-3.2-0.7-4.8-1.3c-1.6-0.5-3.1-1.2-4.4-2.1s-2.4-2.2-3.2-4s-1.3-3.9-1.3-6.4
			c0-4.4,1.5-8,4.5-10.7c3-2.8,7-4.1,11.9-4.1c4.8,0,8.7,1.3,11.7,4S919.3,1837.9,919.5,1842.3z"/>
		<path d="M987.4,1874.3h-11.3v-45.8h11.3V1874.3z"/>
		<path d="M1084,1874.3h-11.3v-27.4c0-5.8-2.8-8.8-8.3-8.8c-5.5,0-8.3,2.9-8.3,8.8v27.4h-11.3v-27.4c0-6,1.7-10.7,5.1-14.1
			c3.4-3.4,8.2-5.1,14.5-5.1c6.3,0,11.1,1.7,14.5,5.1c3.4,3.4,5.1,8.1,5.1,14.1V1874.3z"/>
		<path d="M1160.9,1874.3h-11.3v-35.3h-12.5v-10.5h36.3v10.5h-12.5V1874.3z"/>
		<path d="M1262.8,1874.3H1229v-45.8h33.8v10.5h-22.5v7.5h18.4v9.1h-18.4v8.2h22.5V1874.3z M1248.3,1824.8h-8.9l7.7-11.3h10.8
			L1248.3,1824.8z"/>
		<path d="M1340.7,1874.3h-11.3v-35.3h-12.5v-10.5h36.3v10.5h-12.5V1874.3z"/>
		<path d="M1420.2,1874.3h-11.3v-45.8h11.3V1874.3z"/>
		<path d="M1524.4,1845.9h-12c-0.9-2.4-2.4-4.3-4.5-5.7c-2.1-1.4-4.5-2.1-7.3-2.1c-3.8,0-6.9,1.2-9.3,3.7c-2.4,2.5-3.6,5.7-3.6,9.6
			c0,3.9,1.2,7.1,3.6,9.6c2.4,2.5,5.5,3.7,9.3,3.7c2.8,0,5.2-0.7,7.3-2.1c2.1-1.4,3.6-3.3,4.5-5.7h12c-1.2,5.5-3.9,9.9-8.2,13.2
			c-4.3,3.4-9.5,5-15.6,5c-7.1,0-12.9-2.2-17.5-6.7c-4.6-4.5-6.9-10.2-6.9-17.1c0-6.9,2.3-12.6,6.9-17.1c4.6-4.5,10.4-6.7,17.5-6.7
			c6.1,0,11.3,1.7,15.6,5C1520.5,1836.1,1523.2,1840.5,1524.4,1845.9z"/>
		<path d="M1619.3,1874.3H1608v-13h-17.9v13H1579v-26.6c0-6.3,1.7-11.2,5.2-14.8c3.5-3.5,8.4-5.3,14.9-5.3c6.5,0,11.5,1.8,15,5.3
			c3.5,3.5,5.2,8.5,5.2,14.8V1874.3z M1608,1851.5v-3.8c0-6.4-3-9.6-9-9.6c-6,0-9,3.2-9,9.6v3.8H1608z"/>
		<path d="M1707.9,1842.3h-10.6c0-1.4-0.5-2.5-1.5-3.4c-0.9-0.9-2.3-1.3-4.2-1.3c-1.9,0-3.3,0.5-4.3,1.4c-0.9,0.9-1.4,2.1-1.4,3.4
			c0,1.1,0.4,1.9,1.2,2.5c0.8,0.6,1.9,1.1,3.2,1.3c1.3,0.2,2.8,0.5,4.4,0.8c1.6,0.3,3.2,0.7,4.8,1.2c1.6,0.5,3.1,1.2,4.4,2.1
			c1.3,0.9,2.4,2.2,3.3,3.9c0.8,1.7,1.3,3.8,1.3,6.2c0,4.5-1.6,8.1-4.7,10.8c-3.1,2.7-7.3,4-12.5,4c-5.1,0-9.3-1.3-12.4-3.9
			c-3.1-2.6-4.7-6.1-4.8-10.5h11.1c0,3.1,2.1,4.7,6.2,4.7c4.1,0,6.2-1.6,6.2-4.7c0-1-0.4-1.9-1.3-2.5c-0.8-0.6-1.9-1-3.2-1.3
			c-1.3-0.2-2.8-0.5-4.4-0.8c-1.6-0.3-3.2-0.7-4.8-1.3c-1.6-0.5-3.1-1.2-4.4-2.1s-2.4-2.2-3.2-4s-1.3-3.9-1.3-6.4
			c0-4.4,1.5-8,4.5-10.7c3-2.8,7-4.1,11.9-4.1c4.8,0,8.7,1.3,11.7,4S1707.8,1837.9,1707.9,1842.3z"/>
	</g>
</g>
<g id="Local_301_00000023983029041309025330000006116790445821814933_">
	<polygon class="st1" points="4342.4,1259.1 4287.6,1065 4025.4,1065 4063.2,1259.1 	"/>
	<line class="st1" x1="4342.4" y1="1259.1" x2="4374.2" y2="1183.5"/>
	<line class="st1" x1="4063.2" y1="1259.1" x2="4094.5" y2="1183.5"/>
	<line class="st1" x1="4025.4" y1="1065" x2="4044.5" y2="984.7"/>
	<line class="st1" x1="4287.6" y1="1065" x2="4316.8" y2="984.8"/>
</g>
<g id="Local_302_00000040575375245745643870000005575870499198496677_">
	<polygon class="st1" points="4056.2,1259.1 4019.1,1065 3753.9,1065 3791.1,1259.1 	"/>
	<line class="st1" x1="4056.2" y1="1259.1" x2="4088.3" y2="1183.5"/>
	<line class="st1" x1="3791.1" y1="1259.1" x2="3814.5" y2="1183.5"/>
	<line class="st1" x1="3753.9" y1="1065" x2="3773.5" y2="984.7"/>
	<line class="st1" x1="4019.1" y1="1065" x2="4038.8" y2="984.7"/>
</g>
<g id="Local_303_00000050634915716005145390000002461370466001967032_">
	<polygon class="st1" points="3727.7,936.7 3753.9,1065 3747.3,1065 3785.8,1259.1 3515.1,1259.1 3463.4,936.7 	"/>
	<line class="st1" x1="3747.3" y1="1065" x2="3768.8" y2="984.7"/>
	<line class="st1" x1="3727.7" y1="936.7" x2="3751.4" y2="855.1"/>
	<line class="st1" x1="3463.4" y1="936.7" x2="3475.3" y2="855.1"/>
	<line class="st1" x1="3785.8" y1="1259.1" x2="3809.3" y2="1183.5"/>
	<line class="st1" x1="3515.1" y1="1259.1" x2="3529.7" y2="1183.5"/>
</g>
<g id="local_304">
	<polygon class="st1" points="3462.3,931.5 3726.3,931.5 3702,810.4 3443.1,810.4 	"/>
	<line class="st1" x1="3462.3" y1="931.5" x2="3474.4" y2="850.7"/>
	<line class="st1" x1="3443.1" y1="810.4" x2="3455.1" y2="733.2"/>
	<line class="st1" x1="3702" y1="810.4" x2="3725.5" y2="734.6"/>
	<line class="st1" x1="3726.3" y1="931.5" x2="3750.3" y2="850.7"/>
</g>
<g id="Local_305_00000175282541612173205850000016219436443009613965_">
	<polygon class="st1" points="3699.3,797.2 3441.3,797.2 3427.4,712.4 3682.1,712.4 	"/>
	<line class="st1" x1="3441.3" y1="797.2" x2="3452.9" y2="720"/>
	<line class="st1" x1="3699.3" y1="797.2" x2="3722.7" y2="720"/>
	<line class="st1" x1="3682.1" y1="712.4" x2="3703.3" y2="633.8"/>
	<line class="st1" x1="3427.4" y1="712.4" x2="3438.1" y2="634.2"/>
</g>
<g id="local_306">
	<polygon class="st1" points="3411.7,614.2 3662.1,614.2 3681.1,708.5 3426.7,708.5 	"/>
	<line class="st1" x1="3411.7" y1="614.2" x2="3422.5" y2="536.6"/>
	<line class="st1" x1="3662.1" y1="614.2" x2="3681.1" y2="536.6"/>
	<line class="st1" x1="3681.1" y1="708.5" x2="3703.3" y2="626.3"/>
	<line class="st1" x1="3426.7" y1="708.5" x2="3437.7" y2="626.3"/>
</g>
<g id="Local_307_00000124132870638427663840000017268530043266226619_">
	<polygon class="st1" points="3594.2,292.5 3627.8,450 3389.8,450 3363.9,292.5 	"/>
	<line class="st1" x1="3363.9" y1="292.5" x2="3376.3" y2="215.5"/>
	<line class="st1" x1="3594.2" y1="292.5" x2="3611.3" y2="215.5"/>
	<line class="st1" x1="3627.8" y1="450" x2="3644.8" y2="371.2"/>
	<line class="st1" x1="3389.8" y1="450" x2="3403.3" y2="371.2"/>
</g>
<g id="Local_308_00000022525175425546877850000003556884309370527399_">
	<polygon class="st1" points="3164.4,450 3385.3,450 3359.1,292.5 3144.3,292.5 	"/>
	<line class="st1" x1="3164.4" y1="450" x2="3174.6" y2="371.2"/>
	<line class="st1" x1="3144.3" y1="292.5" x2="3154.2" y2="215.5"/>
	<line class="st1" x1="3359.1" y1="292.5" x2="3371.1" y2="215.5"/>
	<line class="st1" x1="3384.7" y1="446.6" x2="3398.4" y2="371.2"/>
</g>
<g id="Local_309_00000088130058025018942850000010060040574137221512_">
	<path class="st1" d="M2913.3,292.5"/>
	<path class="st1" d="M2940.8,450"/>
	<path class="st1" d="M2925.2,292.5"/>
	<polygon class="st1" points="2947.3,450 3159.4,450 3139.3,292.5 2925.2,292.5 	"/>
	<line class="st1" x1="2925.2" y1="292.5" x2="2928.9" y2="215.5"/>
	<line class="st1" x1="3139.3" y1="292.5" x2="3149.1" y2="215.5"/>
	<line class="st1" x1="3159.4" y1="450" x2="3169.7" y2="371.2"/>
	<line class="st1" x1="2947.3" y1="450" x2="2956.7" y2="371.2"/>
</g>
<g id="Local_310_00000149378530873021632530000000138833922085453978_">
	<polygon class="st1" points="2920.3,292.5 2942.4,450 2883.6,450 2880.6,442.9 2592,443.3 2588.1,292.5 	"/>
	<line class="st1" x1="2920.3" y1="292.5" x2="2925.2" y2="215.5"/>
	<line class="st1" x1="2588.1" y1="292.5" x2="2590.3" y2="215.5"/>
	<line class="st1" x1="2592" y1="443.3" x2="2595.6" y2="371.2"/>
	<line class="st1" x1="2942.4" y1="450" x2="2952.9" y2="371.2"/>
	<g>
	</g>
	<g>
	</g>
	<g>
	</g>
	<g>
	</g>
	<g>
	</g>
	<g>
	</g>
	<g>
	</g>
	<g>
	</g>
	<g>
	</g>
	<g>
	</g>
	<g>
	</g>
	<g>
	</g>
	<g>
	</g>
	<g>
	</g>
	<g>
	</g>
</g>
</svg>
